# 3ds Max Wavefront OBJ Exporter v0.97b - (c)2007 guruware
# File Created: 18.01.2017 14:54:04

#
# object Wall
#

v  10.0000 20.0000 42.3392
v  0.0000 20.0000 42.3392
v  0.0000 20.0000 41.3392
v  10.0000 20.0000 41.3392
v  -20.0000 25.0000 52.3392
v  -20.0000 25.0000 -15.0000
v  -20.0000 20.0000 -15.0000
v  -20.0000 20.0000 52.3392
v  0.0000 25.0000 52.3392
v  0.0000 20.0000 52.3392
v  0.0000 25.0000 42.3392
v  10.0000 25.0000 42.3392
v  30.0000 25.0000 42.3392
v  30.0000 20.0000 42.3392
v  30.0000 25.0000 10.0000
v  30.0000 20.0000 10.0000
v  40.0000 25.0000 2.5000
v  40.0000 20.0000 2.5000
v  40.0000 25.0000 -12.5000
v  40.0000 20.0000 -12.5000
v  30.0000 25.0000 -20.0000
v  30.0000 20.0000 -20.0000
v  -15.0000 25.0000 -20.0000
v  -15.0000 20.0000 -20.0000
v  -19.0000 25.0000 -14.5858
v  -19.0000 25.0000 51.3392
v  -19.0000 20.0000 51.3392
v  -19.0000 20.0000 -14.5858
v  -14.5858 25.0000 -19.0000
v  -14.5858 20.0000 -19.0000
v  29.6667 25.0000 -19.0000
v  29.6667 20.0000 -19.0000
v  39.0000 25.0000 -12.0000
v  39.0000 20.0000 -12.0000
v  39.0000 25.0000 2.0000
v  39.0000 20.0000 2.0000
v  29.0000 25.0000 9.5000
v  29.0000 20.0000 9.5000
v  29.0000 25.0000 41.3392
v  29.0000 20.0000 41.3392
v  10.0000 25.0000 41.3392
v  0.0000 25.0000 41.3392
v  -1.0000 25.0000 41.3392
v  -1.0000 20.0000 41.3392
v  -1.0000 25.0000 51.3392
v  -1.0000 20.0000 51.3392
v  0.0000 5.0000 41.3392
v  0.0000 5.0000 42.3392
v  0.0000 5.0000 52.3392
v  -20.0000 5.0000 52.3392
v  -20.0000 5.0000 -15.0000
v  -15.0000 5.0000 -20.0000
v  30.0000 5.0000 -20.0000
v  40.0000 5.0000 -12.5000
v  40.0000 5.0000 2.5000
v  30.0000 5.0000 10.0000
v  30.0000 5.0000 42.3392
v  10.0000 5.0000 42.3392
v  10.0000 5.0000 41.3392
v  29.0000 5.0000 41.3392
v  29.0000 5.0000 9.5000
v  39.0000 5.0000 2.0000
v  39.0000 5.0000 -12.0000
v  29.6667 5.0000 -19.0000
v  -14.5858 5.0000 -19.0000
v  -19.0000 5.0000 -14.5858
v  -19.0000 5.0000 51.3392
v  -1.0000 5.0000 51.3392
v  -1.0000 5.0000 41.3392
v  0.0000 0.0000 41.3392
v  0.0000 0.0000 42.3392
v  0.0000 0.0000 52.3392
v  -20.0000 0.0000 52.3392
v  -20.0000 0.0000 -15.0000
v  -15.0000 0.0000 -20.0000
v  30.0000 0.0000 -20.0000
v  40.0000 0.0000 -12.5000
v  40.0000 0.0000 2.5000
v  30.0000 0.0000 10.0000
v  30.0000 0.0000 42.3392
v  10.0000 0.0000 42.3392
v  10.0000 0.0000 41.3392
v  29.0000 0.0000 41.3392
v  29.0000 0.0000 9.5000
v  39.0000 0.0000 2.0000
v  39.0000 0.0000 -12.0000
v  29.6667 0.0000 -19.0000
v  -14.5858 0.0000 -19.0000
v  -19.0000 0.0000 -14.5858
v  -19.0000 0.0000 51.3392
v  -1.0000 0.0000 51.3392
v  -1.0000 0.0000 41.3392
# 92 vertices

vn 0.0000 -1.0000 -0.0000
vn 0.0000 -1.0000 -0.0000
vn 0.0000 -1.0000 -0.0000
vn 0.0000 -1.0000 -0.0000
vn -1.0000 0.0000 -0.0000
vn -1.0000 0.0000 -0.0000
vn -1.0000 0.0000 -0.0000
vn -1.0000 0.0000 -0.0000
vn 0.0000 0.0000 1.0000
vn 0.0000 0.0000 1.0000
vn 0.0000 0.0000 1.0000
vn 0.0000 0.0000 1.0000
vn 1.0000 0.0000 -0.0000
vn 1.0000 0.0000 -0.0000
vn 1.0000 0.0000 -0.0000
vn 1.0000 0.0000 -0.0000
vn 0.0000 0.0000 1.0000
vn 0.0000 0.0000 1.0000
vn 0.0000 0.0000 1.0000
vn 0.0000 0.0000 1.0000
vn 0.0000 0.0000 1.0000
vn 0.0000 0.0000 1.0000
vn 0.0000 0.0000 1.0000
vn 0.0000 0.0000 1.0000
vn 1.0000 0.0000 -0.0000
vn 1.0000 0.0000 -0.0000
vn 1.0000 0.0000 -0.0000
vn 1.0000 0.0000 -0.0000
vn 0.6000 0.0000 0.8000
vn 0.6000 0.0000 0.8000
vn 0.6000 0.0000 0.8000
vn 0.6000 0.0000 0.8000
vn 1.0000 0.0000 -0.0000
vn 1.0000 0.0000 -0.0000
vn 1.0000 0.0000 -0.0000
vn 1.0000 0.0000 -0.0000
vn 0.6000 0.0000 -0.8000
vn 0.6000 0.0000 -0.8000
vn 0.6000 0.0000 -0.8000
vn 0.6000 0.0000 -0.8000
vn 0.0000 0.0000 -1.0000
vn 0.0000 0.0000 -1.0000
vn 0.0000 0.0000 -1.0000
vn 0.0000 0.0000 -1.0000
vn -0.7071 0.0000 -0.7071
vn -0.7071 0.0000 -0.7071
vn -0.7071 0.0000 -0.7071
vn -0.7071 0.0000 -0.7071
vn 1.0000 0.0000 -0.0000
vn 1.0000 0.0000 -0.0000
vn 1.0000 0.0000 -0.0000
vn 1.0000 0.0000 -0.0000
vn 0.7071 0.0000 0.7071
vn 0.7071 0.0000 0.7071
vn 0.7071 0.0000 0.7071
vn 0.7071 0.0000 0.7071
vn 0.0000 0.0000 1.0000
vn 0.0000 0.0000 1.0000
vn 0.0000 0.0000 1.0000
vn 0.0000 0.0000 1.0000
vn -0.6000 0.0000 0.8000
vn -0.6000 0.0000 0.8000
vn -0.6000 0.0000 0.8000
vn -0.6000 0.0000 0.8000
vn -1.0000 0.0000 -0.0000
vn -1.0000 0.0000 -0.0000
vn -1.0000 0.0000 -0.0000
vn -1.0000 0.0000 -0.0000
vn -0.6000 0.0000 -0.8000
vn -0.6000 0.0000 -0.8000
vn -0.6000 0.0000 -0.8000
vn -0.6000 0.0000 -0.8000
vn -1.0000 0.0000 -0.0000
vn -1.0000 0.0000 -0.0000
vn -1.0000 0.0000 -0.0000
vn -1.0000 0.0000 -0.0000
vn 0.0000 0.0000 -1.0000
vn 0.0000 0.0000 -1.0000
vn 0.0000 0.0000 -1.0000
vn 0.0000 0.0000 -1.0000
vn 0.0000 0.0000 -1.0000
vn 0.0000 0.0000 -1.0000
vn 0.0000 0.0000 -1.0000
vn 0.0000 0.0000 -1.0000
vn 0.0000 0.0000 -1.0000
vn 0.0000 0.0000 -1.0000
vn 0.0000 0.0000 -1.0000
vn 0.0000 0.0000 -1.0000
vn -1.0000 0.0000 -0.0000
vn -1.0000 0.0000 -0.0000
vn -1.0000 0.0000 -0.0000
vn -1.0000 0.0000 -0.0000
vn 0.0000 0.0000 -1.0000
vn 0.0000 0.0000 -1.0000
vn 0.0000 0.0000 -1.0000
vn 0.0000 0.0000 -1.0000
vn 1.0000 0.0000 -0.0000
vn 1.0000 0.0000 -0.0000
vn 1.0000 0.0000 -0.0000
vn 1.0000 0.0000 -0.0000
vn 1.0000 0.0000 -0.0000
vn 1.0000 0.0000 -0.0000
vn 1.0000 0.0000 -0.0000
vn 1.0000 0.0000 -0.0000
vn 0.0000 0.0000 1.0000
vn 0.0000 0.0000 1.0000
vn 0.0000 0.0000 1.0000
vn 0.0000 0.0000 1.0000
vn -1.0000 0.0000 -0.0000
vn -1.0000 0.0000 -0.0000
vn -1.0000 0.0000 -0.0000
vn -1.0000 0.0000 -0.0000
vn -0.7071 0.0000 -0.7071
vn -0.7071 0.0000 -0.7071
vn -0.7071 0.0000 -0.7071
vn -0.7071 0.0000 -0.7071
vn 0.0000 0.0000 -1.0000
vn 0.0000 0.0000 -1.0000
vn 0.0000 0.0000 -1.0000
vn 0.0000 0.0000 -1.0000
vn 0.6000 0.0000 -0.8000
vn 0.6000 0.0000 -0.8000
vn 0.6000 0.0000 -0.8000
vn 0.6000 0.0000 -0.8000
vn 1.0000 0.0000 -0.0000
vn 1.0000 0.0000 -0.0000
vn 1.0000 0.0000 -0.0000
vn 1.0000 0.0000 -0.0000
vn 0.6000 0.0000 0.8000
vn 0.6000 0.0000 0.8000
vn 0.6000 0.0000 0.8000
vn 0.6000 0.0000 0.8000
vn 1.0000 0.0000 -0.0000
vn 1.0000 0.0000 -0.0000
vn 1.0000 0.0000 -0.0000
vn 1.0000 0.0000 -0.0000
vn 0.0000 0.0000 1.0000
vn 0.0000 0.0000 1.0000
vn 0.0000 0.0000 1.0000
vn 0.0000 0.0000 1.0000
vn -1.0000 0.0000 -0.0000
vn -1.0000 0.0000 -0.0000
vn -1.0000 0.0000 -0.0000
vn -1.0000 0.0000 -0.0000
vn 0.0000 0.0000 -1.0000
vn 0.0000 0.0000 -1.0000
vn 0.0000 0.0000 -1.0000
vn 0.0000 0.0000 -1.0000
vn -1.0000 0.0000 -0.0000
vn -1.0000 0.0000 -0.0000
vn -1.0000 0.0000 -0.0000
vn -1.0000 0.0000 -0.0000
vn -0.6000 0.0000 -0.8000
vn -0.6000 0.0000 -0.8000
vn -0.6000 0.0000 -0.8000
vn -0.6000 0.0000 -0.8000
vn -1.0000 0.0000 -0.0000
vn -1.0000 0.0000 -0.0000
vn -1.0000 0.0000 -0.0000
vn -1.0000 0.0000 -0.0000
vn -0.6000 0.0000 0.8000
vn -0.6000 0.0000 0.8000
vn -0.6000 0.0000 0.8000
vn -0.6000 0.0000 0.8000
vn 0.0000 0.0000 1.0000
vn 0.0000 0.0000 1.0000
vn 0.0000 0.0000 1.0000
vn 0.0000 0.0000 1.0000
vn 0.7071 0.0000 0.7071
vn 0.7071 0.0000 0.7071
vn 0.7071 0.0000 0.7071
vn 0.7071 0.0000 0.7071
vn 1.0000 0.0000 -0.0000
vn 1.0000 0.0000 -0.0000
vn 1.0000 0.0000 -0.0000
vn 1.0000 0.0000 -0.0000
vn 0.0000 0.0000 -1.0000
vn 0.0000 0.0000 -1.0000
vn 0.0000 0.0000 -1.0000
vn 0.0000 0.0000 -1.0000
vn -1.0000 0.0000 -0.0000
vn -1.0000 0.0000 -0.0000
vn -1.0000 0.0000 -0.0000
vn -1.0000 0.0000 -0.0000
vn 0.0000 0.0000 -1.0000
vn 0.0000 0.0000 -1.0000
vn 0.0000 0.0000 -1.0000
vn 0.0000 0.0000 -1.0000
vn 1.0000 0.0000 -0.0000
vn 1.0000 0.0000 -0.0000
vn 1.0000 0.0000 -0.0000
vn 1.0000 0.0000 -0.0000
vn 1.0000 0.0000 -0.0000
vn 1.0000 0.0000 -0.0000
vn 1.0000 0.0000 -0.0000
vn 1.0000 0.0000 -0.0000
vn 0.0000 0.0000 1.0000
vn 0.0000 0.0000 1.0000
vn 0.0000 0.0000 1.0000
vn 0.0000 0.0000 1.0000
vn -1.0000 0.0000 -0.0000
vn -1.0000 0.0000 -0.0000
vn -1.0000 0.0000 -0.0000
vn -1.0000 0.0000 -0.0000
vn -0.7071 0.0000 -0.7071
vn -0.7071 0.0000 -0.7071
vn -0.7071 0.0000 -0.7071
vn -0.7071 0.0000 -0.7071
vn 0.0000 0.0000 -1.0000
vn 0.0000 0.0000 -1.0000
vn 0.0000 0.0000 -1.0000
vn 0.0000 0.0000 -1.0000
vn 0.6000 0.0000 -0.8000
vn 0.6000 0.0000 -0.8000
vn 0.6000 0.0000 -0.8000
vn 0.6000 0.0000 -0.8000
vn 1.0000 0.0000 -0.0000
vn 1.0000 0.0000 -0.0000
vn 1.0000 0.0000 -0.0000
vn 1.0000 0.0000 -0.0000
vn 0.6000 0.0000 0.8000
vn 0.6000 0.0000 0.8000
vn 0.6000 0.0000 0.8000
vn 0.6000 0.0000 0.8000
vn 1.0000 0.0000 -0.0000
vn 1.0000 0.0000 -0.0000
vn 1.0000 0.0000 -0.0000
vn 1.0000 0.0000 -0.0000
vn 0.0000 0.0000 1.0000
vn 0.0000 0.0000 1.0000
vn 0.0000 0.0000 1.0000
vn 0.0000 0.0000 1.0000
vn -1.0000 0.0000 -0.0000
vn -1.0000 0.0000 -0.0000
vn -1.0000 0.0000 -0.0000
vn -1.0000 0.0000 -0.0000
vn 0.0000 0.0000 -1.0000
vn 0.0000 0.0000 -1.0000
vn 0.0000 0.0000 -1.0000
vn 0.0000 0.0000 -1.0000
vn -1.0000 0.0000 -0.0000
vn -1.0000 0.0000 -0.0000
vn -1.0000 0.0000 -0.0000
vn -1.0000 0.0000 -0.0000
vn -0.6000 0.0000 -0.8000
vn -0.6000 0.0000 -0.8000
vn -0.6000 0.0000 -0.8000
vn -0.6000 0.0000 -0.8000
vn -1.0000 0.0000 -0.0000
vn -1.0000 0.0000 -0.0000
vn -1.0000 0.0000 -0.0000
vn -1.0000 0.0000 -0.0000
vn -0.6000 0.0000 0.8000
vn -0.6000 0.0000 0.8000
vn -0.6000 0.0000 0.8000
vn -0.6000 0.0000 0.8000
vn 0.0000 0.0000 1.0000
vn 0.0000 0.0000 1.0000
vn 0.0000 0.0000 1.0000
vn 0.0000 0.0000 1.0000
vn 0.7071 0.0000 0.7071
vn 0.7071 0.0000 0.7071
vn 0.7071 0.0000 0.7071
vn 0.7071 0.0000 0.7071
vn 1.0000 0.0000 -0.0000
vn 1.0000 0.0000 -0.0000
vn 1.0000 0.0000 -0.0000
vn 1.0000 0.0000 -0.0000
vn 0.0000 0.0000 -1.0000
vn 0.0000 0.0000 -1.0000
vn 0.0000 0.0000 -1.0000
vn 0.0000 0.0000 -1.0000
vn -1.0000 0.0000 -0.0000
vn -1.0000 0.0000 -0.0000
vn -1.0000 0.0000 -0.0000
vn -1.0000 0.0000 -0.0000
vn 0.0000 0.0000 -1.0000
vn 0.0000 0.0000 -1.0000
vn 0.0000 0.0000 -1.0000
vn 0.0000 0.0000 -1.0000
# 280 vertex normals

vt 0.3382 0.6359 0.0000
vt 0.2922 0.6359 0.0000
vt 0.2922 0.6313 0.0000
vt 0.3382 0.6313 0.0000
vt 0.2301 0.4907 0.0000
vt 0.0232 0.4908 0.0000
vt 0.0232 0.4678 0.0000
vt 0.2301 0.4677 0.0000
vt 0.3220 0.4907 0.0000
vt 0.3220 0.4677 0.0000
vt 0.3680 0.4907 0.0000
vt 0.3680 0.4677 0.0000
vt 0.4140 0.4907 0.0000
vt 0.4140 0.4677 0.0000
vt 0.5059 0.4907 0.0000
vt 0.5059 0.4677 0.0000
vt 0.5519 0.4907 0.0000
vt 0.5519 0.4677 0.0000
vt 0.6094 0.4907 0.0000
vt 0.6094 0.4677 0.0000
vt 0.6784 0.4907 0.0000
vt 0.6784 0.4677 0.0000
vt 0.7358 0.4907 0.0000
vt 0.7359 0.4677 0.0000
vt 0.9428 0.4908 0.0000
vt 0.9428 0.4678 0.0000
vt 0.9753 0.4908 0.0000
vt 0.9753 0.4678 0.0000
vt 0.6701 0.6200 0.0000
vt 0.4696 0.6200 0.0000
vt 0.4696 0.5970 0.0000
vt 0.6701 0.5970 0.0000
vt 0.6988 0.6200 0.0000
vt 0.6988 0.5970 0.0000
vt 0.9024 0.6200 0.0000
vt 0.9024 0.5970 0.0000
vt 0.9561 0.6200 0.0000
vt 0.9561 0.5970 0.0000
vt 0.1019 0.6200 0.0000
vt 0.0377 0.6200 0.0000
vt 0.0377 0.5970 0.0000
vt 0.1020 0.5970 0.0000
vt 0.1593 0.6200 0.0000
vt 0.1594 0.5970 0.0000
vt 0.2030 0.6200 0.0000
vt 0.2030 0.5970 0.0000
vt 0.2903 0.6200 0.0000
vt 0.2903 0.5970 0.0000
vt 0.3362 0.6200 0.0000
vt 0.3362 0.5970 0.0000
vt 0.3408 0.6200 0.0000
vt 0.3408 0.5970 0.0000
vt 0.3868 0.6200 0.0000
vt 0.3868 0.5970 0.0000
vt 0.2233 0.6313 0.0000
vt 0.2233 0.6359 0.0000
vt 0.3680 0.3987 0.0000
vt 0.3220 0.3987 0.0000
vt 0.2301 0.3988 0.0000
vt 0.0232 0.3989 0.0000
vt 0.9753 0.3988 0.0000
vt 0.9428 0.3988 0.0000
vt 0.7359 0.3988 0.0000
vt 0.6784 0.3987 0.0000
vt 0.6094 0.3987 0.0000
vt 0.5519 0.3987 0.0000
vt 0.5059 0.3987 0.0000
vt 0.4140 0.3987 0.0000
vt 0.4072 0.6359 0.0000
vt 0.4072 0.6313 0.0000
vt 0.2903 0.5280 0.0000
vt 0.2031 0.5280 0.0000
vt 0.1594 0.5280 0.0000
vt 0.1020 0.5280 0.0000
vt 0.0378 0.5280 0.0000
vt 0.9560 0.5280 0.0000
vt 0.9024 0.5280 0.0000
vt 0.6988 0.5280 0.0000
vt 0.6701 0.5280 0.0000
vt 0.4695 0.5280 0.0000
vt 0.3867 0.5280 0.0000
vt 0.3408 0.5280 0.0000
vt 0.3362 0.5280 0.0000
vt 0.2003 0.6313 0.0000
vt 0.2003 0.6359 0.0000
vt 0.3679 0.3757 0.0000
vt 0.3220 0.3758 0.0000
vt 0.2300 0.3758 0.0000
vt 0.0232 0.3759 0.0000
vt 0.9753 0.3758 0.0000
vt 0.9428 0.3758 0.0000
vt 0.7359 0.3758 0.0000
vt 0.6784 0.3757 0.0000
vt 0.6094 0.3757 0.0000
vt 0.5519 0.3757 0.0000
vt 0.5059 0.3757 0.0000
vt 0.4140 0.3757 0.0000
vt 0.4302 0.6359 0.0000
vt 0.4302 0.6313 0.0000
vt 0.2903 0.5053 0.0000
vt 0.2031 0.5052 0.0000
vt 0.1595 0.5052 0.0000
vt 0.1021 0.5051 0.0000
vt 0.0378 0.5050 0.0000
vt 0.9560 0.5048 0.0000
vt 0.9023 0.5048 0.0000
vt 0.6988 0.5050 0.0000
vt 0.6700 0.5050 0.0000
vt 0.4695 0.5051 0.0000
vt 0.3867 0.5052 0.0000
vt 0.3408 0.5052 0.0000
vt 0.3362 0.5052 0.0000
# 112 texture coords

g Wall
s 1
f 2/2/1 3/3/2 4/4/3 1/1/4 
f 6/6/5 7/7/6 8/8/7 5/5/8 
f 5/5/9 8/8/10 10/10/11 9/9/12 
f 9/9/13 10/10/14 2/12/15 11/11/16 
f 11/11/17 2/12/18 1/14/19 12/13/20 
f 12/13/21 1/14/22 14/16/23 13/15/24 
f 13/15/25 14/16/26 16/18/27 15/17/28 
f 15/17/29 16/18/30 18/20/31 17/19/32 
f 17/19/33 18/20/34 20/22/35 19/21/36 
f 19/21/37 20/22/38 22/24/39 21/23/40 
f 21/23/41 22/24/42 24/26/43 23/25/44 
f 23/25/45 24/26/46 7/28/47 6/27/48 
f 26/30/49 27/31/50 28/32/51 25/29/52 
f 25/29/53 28/32/54 30/34/55 29/33/56 
f 29/33/57 30/34/58 32/36/59 31/35/60 
f 31/35/61 32/36/62 34/38/63 33/37/64 
f 33/40/65 34/41/66 36/42/67 35/39/68 
f 35/39/69 36/42/70 38/44/71 37/43/72 
f 37/43/73 38/44/74 40/46/75 39/45/76 
f 39/45/77 40/46/78 4/48/79 41/47/80 
f 41/47/81 4/48/82 3/50/83 42/49/84 
f 42/49/85 3/50/86 44/52/87 43/51/88 
f 43/51/89 44/52/90 46/54/91 45/53/92 
f 45/53/93 46/54/94 27/31/95 26/30/96 
f 3/3/97 2/2/98 48/56/99 47/55/100 
f 2/12/101 10/10/102 49/58/103 48/57/104 
f 10/10/105 8/8/106 50/59/107 49/58/108 
f 8/8/109 7/7/110 51/60/111 50/59/112 
f 7/28/113 24/26/114 52/62/115 51/61/116 
f 24/26/117 22/24/118 53/63/119 52/62/120 
f 22/24/121 20/22/122 54/64/123 53/63/124 
f 20/22/125 18/20/126 55/65/127 54/64/128 
f 18/20/129 16/18/130 56/66/131 55/65/132 
f 16/18/133 14/16/134 57/67/135 56/66/136 
f 14/16/137 1/14/138 58/68/139 57/67/140 
f 1/1/141 4/4/142 59/70/143 58/69/144 
f 4/48/145 40/46/146 60/72/147 59/71/148 
f 40/46/149 38/44/150 61/73/151 60/72/152 
f 38/44/153 36/42/154 62/74/155 61/73/156 
f 36/42/157 34/41/158 63/75/159 62/74/160 
f 34/38/161 32/36/162 64/77/163 63/76/164 
f 32/36/165 30/34/166 65/78/167 64/77/168 
f 30/34/169 28/32/170 66/79/171 65/78/172 
f 28/32/173 27/31/174 67/80/175 66/79/176 
f 27/31/177 46/54/178 68/81/179 67/80/180 
f 46/54/181 44/52/182 69/82/183 68/81/184 
f 44/52/185 3/50/186 47/83/187 69/82/188 
f 47/55/189 48/56/190 71/85/191 70/84/192 
f 48/57/193 49/58/194 72/87/195 71/86/196 
f 49/58/197 50/59/198 73/88/199 72/87/200 
f 50/59/201 51/60/202 74/89/203 73/88/204 
f 51/61/205 52/62/206 75/91/207 74/90/208 
f 52/62/209 53/63/210 76/92/211 75/91/212 
f 53/63/213 54/64/214 77/93/215 76/92/216 
f 54/64/217 55/65/218 78/94/219 77/93/220 
f 55/65/221 56/66/222 79/95/223 78/94/224 
f 56/66/225 57/67/226 80/96/227 79/95/228 
f 57/67/229 58/68/230 81/97/231 80/96/232 
f 58/69/233 59/70/234 82/99/235 81/98/236 
f 59/71/237 60/72/238 83/101/239 82/100/240 
f 60/72/241 61/73/242 84/102/243 83/101/244 
f 61/73/245 62/74/246 85/103/247 84/102/248 
f 62/74/249 63/75/250 86/104/251 85/103/252 
f 63/76/253 64/77/254 87/106/255 86/105/256 
f 64/77/257 65/78/258 88/107/259 87/106/260 
f 65/78/261 66/79/262 89/108/263 88/107/264 
f 66/79/265 67/80/266 90/109/267 89/108/268 
f 67/80/269 68/81/270 91/110/271 90/109/272 
f 68/81/273 69/82/274 92/111/275 91/110/276 
f 69/82/277 47/83/278 70/112/279 92/111/280 
# 70 polygons

#
# object Bound
#

v  -19.0000 0.0000 51.3392
v  -1.0000 0.0000 51.3392
v  -1.0000 0.0000 41.3392
v  29.0000 0.0000 41.3392
v  29.0000 0.0000 9.5000
v  39.0000 0.0000 2.0000
v  39.0000 0.0000 -12.0000
v  29.6667 0.0000 -19.0000
v  -14.5858 0.0000 -19.0000
v  -19.0000 0.0000 -14.5858
# 10 vertices

vn 0.0000 1.0000 -0.0000
vn 0.0000 1.0000 -0.0000
vn 0.0000 1.0000 -0.0000
vn 0.0000 1.0000 -0.0000
vn 0.0000 1.0000 -0.0000
vn 0.0000 1.0000 -0.0000
vn 0.0000 1.0000 -0.0000
vn 0.0000 1.0000 -0.0000
vn 0.0000 1.0000 -0.0000
vn 0.0000 1.0000 -0.0000
# 10 vertex normals

vt 0.0200 0.0200 0.0000
vt 0.2657 0.0200 0.0000
vt 0.2657 0.1565 0.0000
vt 0.6751 0.1565 0.0000
vt 0.6751 0.5910 0.0000
vt 0.8116 0.6934 0.0000
vt 0.8116 0.8845 0.0000
vt 0.6842 0.9800 0.0000
vt 0.0802 0.9800 0.0000
vt 0.0200 0.9198 0.0000
# 10 texture coords

g Bound
s 1
f 93/113/281 94/114/282 95/115/283 96/116/284 97/117/285 98/118/286 99/119/287 100/120/288 101/121/289 102/122/290 
# 1 polygons

