# 3ds Max Wavefront OBJ Exporter v0.97b - (c)2007 guruware
# File Created: 23.01.2017 12:10:02

#
# object Wall
#

v  10.0000 20.0000 42.3392
v  0.0000 20.0000 42.3392
v  0.0000 20.0000 41.3392
v  10.0000 20.0000 41.3392
v  -20.0000 25.0000 52.3392
v  -20.0000 25.0000 -15.0000
v  -20.0000 20.0000 -15.0000
v  -20.0000 20.0000 52.3392
v  0.0000 25.0000 52.3392
v  0.0000 20.0000 52.3392
v  0.0000 25.0000 42.3392
v  10.0000 25.0000 42.3392
v  30.0000 25.0000 42.3392
v  30.0000 20.0000 42.3392
v  30.0000 25.0000 10.0000
v  30.0000 20.0000 10.0000
v  40.0000 25.0000 2.5000
v  40.0000 20.0000 2.5000
v  40.0000 25.0000 -12.5000
v  40.0000 20.0000 -12.5000
v  30.0000 25.0000 -20.0000
v  30.0000 20.0000 -20.0000
v  -15.0000 25.0000 -20.0000
v  -15.0000 20.0000 -20.0000
v  -19.0000 25.0000 -14.5858
v  -19.0000 25.0000 51.3392
v  -19.0000 20.0000 51.3392
v  -19.0000 20.0000 -14.5858
v  -14.5858 25.0000 -19.0000
v  -14.5858 20.0000 -19.0000
v  29.6667 25.0000 -19.0000
v  29.6667 20.0000 -19.0000
v  39.0000 25.0000 -12.0000
v  39.0000 20.0000 -12.0000
v  39.0000 25.0000 2.0000
v  39.0000 20.0000 2.0000
v  29.0000 25.0000 9.5000
v  29.0000 20.0000 9.5000
v  29.0000 25.0000 41.3392
v  29.0000 20.0000 41.3392
v  10.0000 25.0000 41.3392
v  0.0000 25.0000 41.3392
v  -1.0000 25.0000 41.3392
v  -1.0000 20.0000 41.3392
v  -1.0000 25.0000 51.3392
v  -1.0000 20.0000 51.3392
v  0.0000 5.0000 41.3392
v  0.0000 5.0000 42.3392
v  0.0000 5.0000 52.3392
v  -20.0000 5.0000 52.3392
v  -20.0000 5.0000 -15.0000
v  -15.0000 5.0000 -20.0000
v  30.0000 5.0000 -20.0000
v  40.0000 5.0000 -12.5000
v  40.0000 5.0000 2.5000
v  30.0000 5.0000 10.0000
v  30.0000 5.0000 42.3392
v  10.0000 5.0000 42.3392
v  10.0000 5.0000 41.3392
v  29.0000 5.0000 41.3392
v  29.0000 5.0000 9.5000
v  39.0000 5.0000 2.0000
v  39.0000 5.0000 -12.0000
v  29.6667 5.0000 -19.0000
v  -14.5858 5.0000 -19.0000
v  -19.0000 5.0000 -14.5858
v  -19.0000 5.0000 51.3392
v  -1.0000 5.0000 51.3392
v  -1.0000 5.0000 41.3392
v  0.0000 0.0000 41.3392
v  0.0000 0.0000 42.3392
v  0.0000 0.0000 52.3392
v  -20.0000 0.0000 52.3392
v  -20.0000 0.0000 -15.0000
v  -15.0000 0.0000 -20.0000
v  30.0000 0.0000 -20.0000
v  40.0000 0.0000 -12.5000
v  40.0000 0.0000 2.5000
v  30.0000 0.0000 10.0000
v  30.0000 0.0000 42.3392
v  10.0000 0.0000 42.3392
v  10.0000 0.0000 41.3392
v  29.0000 0.0000 41.3392
v  29.0000 0.0000 9.5000
v  39.0000 0.0000 2.0000
v  39.0000 0.0000 -12.0000
v  29.6667 0.0000 -19.0000
v  -14.5858 0.0000 -19.0000
v  -19.0000 0.0000 -14.5858
v  -19.0000 0.0000 51.3392
v  -1.0000 0.0000 51.3392
v  -1.0000 0.0000 41.3392
# 92 vertices

vn 0.0000 -1.0000 -0.0000
vn 0.0000 -1.0000 -0.0000
vn 0.0000 -1.0000 -0.0000
vn 0.0000 -1.0000 -0.0000
vn -1.0000 0.0000 -0.0000
vn -1.0000 0.0000 -0.0000
vn -1.0000 0.0000 -0.0000
vn -1.0000 0.0000 -0.0000
vn 0.0000 0.0000 1.0000
vn 0.0000 0.0000 1.0000
vn 0.0000 0.0000 1.0000
vn 0.0000 0.0000 1.0000
vn 1.0000 0.0000 -0.0000
vn 1.0000 0.0000 -0.0000
vn 1.0000 0.0000 -0.0000
vn 1.0000 0.0000 -0.0000
vn 0.0000 0.0000 1.0000
vn 0.0000 0.0000 1.0000
vn 0.0000 0.0000 1.0000
vn 0.0000 0.0000 1.0000
vn 0.0000 0.0000 1.0000
vn 0.0000 0.0000 1.0000
vn 0.0000 0.0000 1.0000
vn 0.0000 0.0000 1.0000
vn 1.0000 0.0000 -0.0000
vn 1.0000 0.0000 -0.0000
vn 1.0000 0.0000 -0.0000
vn 1.0000 0.0000 -0.0000
vn 0.6000 0.0000 0.8000
vn 0.6000 0.0000 0.8000
vn 0.6000 0.0000 0.8000
vn 0.6000 0.0000 0.8000
vn 1.0000 0.0000 -0.0000
vn 1.0000 0.0000 -0.0000
vn 1.0000 0.0000 -0.0000
vn 1.0000 0.0000 -0.0000
vn 0.6000 0.0000 -0.8000
vn 0.6000 0.0000 -0.8000
vn 0.6000 0.0000 -0.8000
vn 0.6000 0.0000 -0.8000
vn 0.0000 0.0000 -1.0000
vn 0.0000 0.0000 -1.0000
vn 0.0000 0.0000 -1.0000
vn 0.0000 0.0000 -1.0000
vn -0.7071 0.0000 -0.7071
vn -0.7071 0.0000 -0.7071
vn -0.7071 0.0000 -0.7071
vn -0.7071 0.0000 -0.7071
vn 1.0000 0.0000 -0.0000
vn 1.0000 0.0000 -0.0000
vn 1.0000 0.0000 -0.0000
vn 1.0000 0.0000 -0.0000
vn 0.7071 0.0000 0.7071
vn 0.7071 0.0000 0.7071
vn 0.7071 0.0000 0.7071
vn 0.7071 0.0000 0.7071
vn 0.0000 0.0000 1.0000
vn 0.0000 0.0000 1.0000
vn 0.0000 0.0000 1.0000
vn 0.0000 0.0000 1.0000
vn -0.6000 0.0000 0.8000
vn -0.6000 0.0000 0.8000
vn -0.6000 0.0000 0.8000
vn -0.6000 0.0000 0.8000
vn -1.0000 0.0000 -0.0000
vn -1.0000 0.0000 -0.0000
vn -1.0000 0.0000 -0.0000
vn -1.0000 0.0000 -0.0000
vn -0.6000 0.0000 -0.8000
vn -0.6000 0.0000 -0.8000
vn -0.6000 0.0000 -0.8000
vn -0.6000 0.0000 -0.8000
vn -1.0000 0.0000 -0.0000
vn -1.0000 0.0000 -0.0000
vn -1.0000 0.0000 -0.0000
vn -1.0000 0.0000 -0.0000
vn 0.0000 0.0000 -1.0000
vn 0.0000 0.0000 -1.0000
vn 0.0000 0.0000 -1.0000
vn 0.0000 0.0000 -1.0000
vn 0.0000 0.0000 -1.0000
vn 0.0000 0.0000 -1.0000
vn 0.0000 0.0000 -1.0000
vn 0.0000 0.0000 -1.0000
vn 0.0000 0.0000 -1.0000
vn 0.0000 0.0000 -1.0000
vn 0.0000 0.0000 -1.0000
vn 0.0000 0.0000 -1.0000
vn -1.0000 0.0000 -0.0000
vn -1.0000 0.0000 -0.0000
vn -1.0000 0.0000 -0.0000
vn -1.0000 0.0000 -0.0000
vn 0.0000 0.0000 -1.0000
vn 0.0000 0.0000 -1.0000
vn 0.0000 0.0000 -1.0000
vn 0.0000 0.0000 -1.0000
vn 1.0000 0.0000 -0.0000
vn 1.0000 0.0000 -0.0000
vn 1.0000 0.0000 -0.0000
vn 1.0000 0.0000 -0.0000
vn 1.0000 0.0000 -0.0000
vn 1.0000 0.0000 -0.0000
vn 1.0000 0.0000 -0.0000
vn 1.0000 0.0000 -0.0000
vn 0.0000 0.0000 1.0000
vn 0.0000 0.0000 1.0000
vn 0.0000 0.0000 1.0000
vn 0.0000 0.0000 1.0000
vn -1.0000 0.0000 -0.0000
vn -1.0000 0.0000 -0.0000
vn -1.0000 0.0000 -0.0000
vn -1.0000 0.0000 -0.0000
vn -0.7071 0.0000 -0.7071
vn -0.7071 0.0000 -0.7071
vn -0.7071 0.0000 -0.7071
vn -0.7071 0.0000 -0.7071
vn 0.0000 0.0000 -1.0000
vn 0.0000 0.0000 -1.0000
vn 0.0000 0.0000 -1.0000
vn 0.0000 0.0000 -1.0000
vn 0.6000 0.0000 -0.8000
vn 0.6000 0.0000 -0.8000
vn 0.6000 0.0000 -0.8000
vn 0.6000 0.0000 -0.8000
vn 1.0000 0.0000 -0.0000
vn 1.0000 0.0000 -0.0000
vn 1.0000 0.0000 -0.0000
vn 1.0000 0.0000 -0.0000
vn 0.6000 0.0000 0.8000
vn 0.6000 0.0000 0.8000
vn 0.6000 0.0000 0.8000
vn 0.6000 0.0000 0.8000
vn 1.0000 0.0000 -0.0000
vn 1.0000 0.0000 -0.0000
vn 1.0000 0.0000 -0.0000
vn 1.0000 0.0000 -0.0000
vn 0.0000 0.0000 1.0000
vn 0.0000 0.0000 1.0000
vn 0.0000 0.0000 1.0000
vn 0.0000 0.0000 1.0000
vn -1.0000 0.0000 -0.0000
vn -1.0000 0.0000 -0.0000
vn -1.0000 0.0000 -0.0000
vn -1.0000 0.0000 -0.0000
vn 0.0000 0.0000 -1.0000
vn 0.0000 0.0000 -1.0000
vn 0.0000 0.0000 -1.0000
vn 0.0000 0.0000 -1.0000
vn -1.0000 0.0000 -0.0000
vn -1.0000 0.0000 -0.0000
vn -1.0000 0.0000 -0.0000
vn -1.0000 0.0000 -0.0000
vn -0.6000 0.0000 -0.8000
vn -0.6000 0.0000 -0.8000
vn -0.6000 0.0000 -0.8000
vn -0.6000 0.0000 -0.8000
vn -1.0000 0.0000 -0.0000
vn -1.0000 0.0000 -0.0000
vn -1.0000 0.0000 -0.0000
vn -1.0000 0.0000 -0.0000
vn -0.6000 0.0000 0.8000
vn -0.6000 0.0000 0.8000
vn -0.6000 0.0000 0.8000
vn -0.6000 0.0000 0.8000
vn 0.0000 0.0000 1.0000
vn 0.0000 0.0000 1.0000
vn 0.0000 0.0000 1.0000
vn 0.0000 0.0000 1.0000
vn 0.7071 0.0000 0.7071
vn 0.7071 0.0000 0.7071
vn 0.7071 0.0000 0.7071
vn 0.7071 0.0000 0.7071
vn 1.0000 0.0000 -0.0000
vn 1.0000 0.0000 -0.0000
vn 1.0000 0.0000 -0.0000
vn 1.0000 0.0000 -0.0000
vn 0.0000 0.0000 -1.0000
vn 0.0000 0.0000 -1.0000
vn 0.0000 0.0000 -1.0000
vn 0.0000 0.0000 -1.0000
vn -1.0000 0.0000 -0.0000
vn -1.0000 0.0000 -0.0000
vn -1.0000 0.0000 -0.0000
vn -1.0000 0.0000 -0.0000
vn 0.0000 0.0000 -1.0000
vn 0.0000 0.0000 -1.0000
vn 0.0000 0.0000 -1.0000
vn 0.0000 0.0000 -1.0000
vn 1.0000 0.0000 -0.0000
vn 1.0000 0.0000 -0.0000
vn 1.0000 0.0000 -0.0000
vn 1.0000 0.0000 -0.0000
vn 1.0000 0.0000 -0.0000
vn 1.0000 0.0000 -0.0000
vn 1.0000 0.0000 -0.0000
vn 1.0000 0.0000 -0.0000
vn 0.0000 0.0000 1.0000
vn 0.0000 0.0000 1.0000
vn 0.0000 0.0000 1.0000
vn 0.0000 0.0000 1.0000
vn -1.0000 0.0000 -0.0000
vn -1.0000 0.0000 -0.0000
vn -1.0000 0.0000 -0.0000
vn -1.0000 0.0000 -0.0000
vn -0.7071 0.0000 -0.7071
vn -0.7071 0.0000 -0.7071
vn -0.7071 0.0000 -0.7071
vn -0.7071 0.0000 -0.7071
vn 0.0000 0.0000 -1.0000
vn 0.0000 0.0000 -1.0000
vn 0.0000 0.0000 -1.0000
vn 0.0000 0.0000 -1.0000
vn 0.6000 0.0000 -0.8000
vn 0.6000 0.0000 -0.8000
vn 0.6000 0.0000 -0.8000
vn 0.6000 0.0000 -0.8000
vn 1.0000 0.0000 -0.0000
vn 1.0000 0.0000 -0.0000
vn 1.0000 0.0000 -0.0000
vn 1.0000 0.0000 -0.0000
vn 0.6000 0.0000 0.8000
vn 0.6000 0.0000 0.8000
vn 0.6000 0.0000 0.8000
vn 0.6000 0.0000 0.8000
vn 1.0000 0.0000 -0.0000
vn 1.0000 0.0000 -0.0000
vn 1.0000 0.0000 -0.0000
vn 1.0000 0.0000 -0.0000
vn 0.0000 0.0000 1.0000
vn 0.0000 0.0000 1.0000
vn 0.0000 0.0000 1.0000
vn 0.0000 0.0000 1.0000
vn -1.0000 0.0000 -0.0000
vn -1.0000 0.0000 -0.0000
vn -1.0000 0.0000 -0.0000
vn -1.0000 0.0000 -0.0000
vn 0.0000 0.0000 -1.0000
vn 0.0000 0.0000 -1.0000
vn 0.0000 0.0000 -1.0000
vn 0.0000 0.0000 -1.0000
vn -1.0000 0.0000 -0.0000
vn -1.0000 0.0000 -0.0000
vn -1.0000 0.0000 -0.0000
vn -1.0000 0.0000 -0.0000
vn -0.6000 0.0000 -0.8000
vn -0.6000 0.0000 -0.8000
vn -0.6000 0.0000 -0.8000
vn -0.6000 0.0000 -0.8000
vn -1.0000 0.0000 -0.0000
vn -1.0000 0.0000 -0.0000
vn -1.0000 0.0000 -0.0000
vn -1.0000 0.0000 -0.0000
vn -0.6000 0.0000 0.8000
vn -0.6000 0.0000 0.8000
vn -0.6000 0.0000 0.8000
vn -0.6000 0.0000 0.8000
vn 0.0000 0.0000 1.0000
vn 0.0000 0.0000 1.0000
vn 0.0000 0.0000 1.0000
vn 0.0000 0.0000 1.0000
vn 0.7071 0.0000 0.7071
vn 0.7071 0.0000 0.7071
vn 0.7071 0.0000 0.7071
vn 0.7071 0.0000 0.7071
vn 1.0000 0.0000 -0.0000
vn 1.0000 0.0000 -0.0000
vn 1.0000 0.0000 -0.0000
vn 1.0000 0.0000 -0.0000
vn 0.0000 0.0000 -1.0000
vn 0.0000 0.0000 -1.0000
vn 0.0000 0.0000 -1.0000
vn 0.0000 0.0000 -1.0000
vn -1.0000 0.0000 -0.0000
vn -1.0000 0.0000 -0.0000
vn -1.0000 0.0000 -0.0000
vn -1.0000 0.0000 -0.0000
vn 0.0000 0.0000 -1.0000
vn 0.0000 0.0000 -1.0000
vn 0.0000 0.0000 -1.0000
vn 0.0000 0.0000 -1.0000
# 280 vertex normals

vt 0.6338 0.9453 0.0000
vt 0.4764 0.9453 0.0000
vt 0.4764 0.9296 0.0000
vt 0.6338 0.9296 0.0000
vt 0.7467 0.4331 0.0000
vt 0.0388 0.4331 0.0000
vt 0.0388 0.3544 0.0000
vt 0.7467 0.3544 0.0000
vt 1.0611 0.4331 0.0000
vt 1.0611 0.3544 0.0000
vt 1.2185 0.4331 0.0000
vt 1.2185 0.3544 0.0000
vt 1.3759 0.4331 0.0000
vt 1.3759 0.3544 0.0000
vt 1.6903 0.4331 0.0000
vt 1.6903 0.3544 0.0000
vt 2.1361 0.4331 0.0000
vt 2.1361 0.3544 0.0000
vt 2.3328 0.4331 0.0000
vt 2.3328 0.3544 0.0000
vt 2.5689 0.4331 0.0000
vt 2.5689 0.3544 0.0000
vt 2.7655 0.4331 0.0000
vt 2.7655 0.3544 0.0000
vt 3.4735 0.4331 0.0000
vt 3.4735 0.3544 0.0000
vt 3.5847 0.4331 0.0000
vt 3.5847 0.3544 0.0000
vt 2.6416 0.8673 0.0000
vt 1.7660 0.8673 0.0000
vt 1.7660 0.7886 0.0000
vt 2.6416 0.7886 0.0000
vt 2.7400 0.8673 0.0000
vt 2.7400 0.7886 0.0000
vt 3.4366 0.8673 0.0000
vt 3.4366 0.7886 0.0000
vt 3.6201 0.8673 0.0000
vt 3.6201 0.7886 0.0000
vt 0.2565 0.8673 0.0000
vt 0.0366 0.8673 0.0000
vt 0.0366 0.7886 0.0000
vt 0.2565 0.7886 0.0000
vt 0.4529 0.8673 0.0000
vt 0.4529 0.7886 0.0000
vt 0.8538 0.8673 0.0000
vt 0.8538 0.7886 0.0000
vt 1.1525 0.8673 0.0000
vt 1.1525 0.7886 0.0000
vt 1.3096 0.8673 0.0000
vt 1.3096 0.7886 0.0000
vt 1.3253 0.8673 0.0000
vt 1.3253 0.7886 0.0000
vt 1.4825 0.8673 0.0000
vt 1.4825 0.7886 0.0000
vt 0.2407 0.9296 0.0000
vt 0.2407 0.9453 0.0000
vt 1.2185 0.1185 0.0000
vt 1.0611 0.1185 0.0000
vt 0.7467 0.1185 0.0000
vt 0.0388 0.1185 0.0000
vt 3.5847 0.1185 0.0000
vt 3.4735 0.1185 0.0000
vt 2.7655 0.1185 0.0000
vt 2.5689 0.1185 0.0000
vt 2.3328 0.1185 0.0000
vt 2.1361 0.1185 0.0000
vt 1.6903 0.1185 0.0000
vt 1.3759 0.1185 0.0000
vt 0.8699 0.9453 0.0000
vt 0.8699 0.9296 0.0000
vt 1.1525 0.5525 0.0000
vt 0.8542 0.5525 0.0000
vt 0.4529 0.5525 0.0000
vt 0.2565 0.5525 0.0000
vt 0.0366 0.5525 0.0000
vt 3.6201 0.5525 0.0000
vt 3.4366 0.5525 0.0000
vt 2.7400 0.5525 0.0000
vt 2.6416 0.5525 0.0000
vt 1.7656 0.5525 0.0000
vt 1.4825 0.5525 0.0000
vt 1.3253 0.5525 0.0000
vt 1.3096 0.5525 0.0000
vt 0.1620 0.9296 0.0000
vt 0.1620 0.9453 0.0000
vt 1.2182 0.0398 0.0000
vt 1.0611 0.0398 0.0000
vt 0.7464 0.0398 0.0000
vt 0.0388 0.0398 0.0000
vt 3.5847 0.0398 0.0000
vt 3.4735 0.0398 0.0000
vt 2.7655 0.0398 0.0000
vt 2.5689 0.0398 0.0000
vt 2.3328 0.0398 0.0000
vt 2.1361 0.0398 0.0000
vt 1.6903 0.0398 0.0000
vt 1.3759 0.0398 0.0000
vt 0.9486 0.9453 0.0000
vt 0.9486 0.9296 0.0000
vt 1.1525 0.4740 0.0000
vt 0.8542 0.4740 0.0000
vt 0.4529 0.4740 0.0000
vt 0.2565 0.4740 0.0000
vt 0.0366 0.4740 0.0000
vt 3.6201 0.4740 0.0000
vt 3.4362 0.4740 0.0000
vt 2.7400 0.4740 0.0000
vt 2.6416 0.4740 0.0000
vt 1.7656 0.4740 0.0000
vt 1.4825 0.4740 0.0000
vt 1.3253 0.4740 0.0000
vt 1.3096 0.4740 0.0000
# 112 texture coords

g Wall
s 1
f 3/3/1 4/4/2 1/1/3 2/2/4 
f 7/7/5 8/8/6 5/5/7 6/6/8 
f 8/8/9 10/10/10 9/9/11 5/5/12 
f 10/10/13 2/12/14 11/11/15 9/9/16 
f 2/12/17 1/14/18 12/13/19 11/11/20 
f 1/14/21 14/16/22 13/15/23 12/13/24 
f 14/16/25 16/18/26 15/17/27 13/15/28 
f 16/18/29 18/20/30 17/19/31 15/17/32 
f 18/20/33 20/22/34 19/21/35 17/19/36 
f 20/22/37 22/24/38 21/23/39 19/21/40 
f 22/24/41 24/26/42 23/25/43 21/23/44 
f 24/26/45 7/28/46 6/27/47 23/25/48 
f 27/31/49 28/32/50 25/29/51 26/30/52 
f 28/32/53 30/34/54 29/33/55 25/29/56 
f 30/34/57 32/36/58 31/35/59 29/33/60 
f 32/36/61 34/38/62 33/37/63 31/35/64 
f 34/41/65 36/42/66 35/39/67 33/40/68 
f 36/42/69 38/44/70 37/43/71 35/39/72 
f 38/44/73 40/46/74 39/45/75 37/43/76 
f 40/46/77 4/48/78 41/47/79 39/45/80 
f 4/48/81 3/50/82 42/49/83 41/47/84 
f 3/50/85 44/52/86 43/51/87 42/49/88 
f 44/52/89 46/54/90 45/53/91 43/51/92 
f 46/54/93 27/31/94 26/30/95 45/53/96 
f 2/2/97 48/56/98 47/55/99 3/3/100 
f 10/10/101 49/58/102 48/57/103 2/12/104 
f 8/8/105 50/59/106 49/58/107 10/10/108 
f 7/7/109 51/60/110 50/59/111 8/8/112 
f 24/26/113 52/62/114 51/61/115 7/28/116 
f 22/24/117 53/63/118 52/62/119 24/26/120 
f 20/22/121 54/64/122 53/63/123 22/24/124 
f 18/20/125 55/65/126 54/64/127 20/22/128 
f 16/18/129 56/66/130 55/65/131 18/20/132 
f 14/16/133 57/67/134 56/66/135 16/18/136 
f 1/14/137 58/68/138 57/67/139 14/16/140 
f 4/4/141 59/70/142 58/69/143 1/1/144 
f 40/46/145 60/72/146 59/71/147 4/48/148 
f 38/44/149 61/73/150 60/72/151 40/46/152 
f 36/42/153 62/74/154 61/73/155 38/44/156 
f 34/41/157 63/75/158 62/74/159 36/42/160 
f 32/36/161 64/77/162 63/76/163 34/38/164 
f 30/34/165 65/78/166 64/77/167 32/36/168 
f 28/32/169 66/79/170 65/78/171 30/34/172 
f 27/31/173 67/80/174 66/79/175 28/32/176 
f 46/54/177 68/81/178 67/80/179 27/31/180 
f 44/52/181 69/82/182 68/81/183 46/54/184 
f 3/50/185 47/83/186 69/82/187 44/52/188 
f 48/56/189 71/85/190 70/84/191 47/55/192 
f 49/58/193 72/87/194 71/86/195 48/57/196 
f 50/59/197 73/88/198 72/87/199 49/58/200 
f 51/60/201 74/89/202 73/88/203 50/59/204 
f 52/62/205 75/91/206 74/90/207 51/61/208 
f 53/63/209 76/92/210 75/91/211 52/62/212 
f 54/64/213 77/93/214 76/92/215 53/63/216 
f 55/65/217 78/94/218 77/93/219 54/64/220 
f 56/66/221 79/95/222 78/94/223 55/65/224 
f 57/67/225 80/96/226 79/95/227 56/66/228 
f 58/68/229 81/97/230 80/96/231 57/67/232 
f 59/70/233 82/99/234 81/98/235 58/69/236 
f 60/72/237 83/101/238 82/100/239 59/71/240 
f 61/73/241 84/102/242 83/101/243 60/72/244 
f 62/74/245 85/103/246 84/102/247 61/73/248 
f 63/75/249 86/104/250 85/103/251 62/74/252 
f 64/77/253 87/106/254 86/105/255 63/76/256 
f 65/78/257 88/107/258 87/106/259 64/77/260 
f 66/79/261 89/108/262 88/107/263 65/78/264 
f 67/80/265 90/109/266 89/108/267 66/79/268 
f 68/81/269 91/110/270 90/109/271 67/80/272 
f 69/82/273 92/111/274 91/110/275 68/81/276 
f 47/83/277 70/112/278 92/111/279 69/82/280 
# 70 polygons

#
# object Bound
#

v  -19.0000 0.0000 51.3392
v  -1.0000 0.0000 51.3392
v  -1.0000 0.0000 41.3392
v  29.0000 0.0000 41.3392
v  29.0000 0.0000 9.5000
v  39.0000 0.0000 2.0000
v  39.0000 0.0000 -12.0000
v  29.6667 0.0000 -19.0000
v  -14.5858 0.0000 -19.0000
v  -19.0000 0.0000 -14.5858
# 10 vertices

vn 0.0000 1.0000 -0.0000
vn 0.0000 1.0000 -0.0000
vn 0.0000 1.0000 -0.0000
vn 0.0000 1.0000 -0.0000
vn 0.0000 1.0000 -0.0000
vn 0.0000 1.0000 -0.0000
vn 0.0000 1.0000 -0.0000
vn 0.0000 1.0000 -0.0000
vn 0.0000 1.0000 -0.0000
vn 0.0000 1.0000 -0.0000
vn 0.0000 1.0000 -0.0000
vn 0.0000 1.0000 -0.0000
vn 0.0000 1.0000 -0.0000
vn 0.0000 1.0000 -0.0000
vn 0.0000 1.0000 -0.0000
vn 0.0000 1.0000 -0.0000
# 16 vertex normals

vt 0.0200 0.0200 0.0000
vt 0.2657 0.0200 0.0000
vt 0.2657 0.1565 0.0000
vt 0.6751 0.1565 0.0000
vt 0.6751 0.5910 0.0000
vt 0.8116 0.6934 0.0000
vt 0.8116 0.8845 0.0000
vt 0.6842 0.9800 0.0000
vt 0.0802 0.9800 0.0000
vt 0.0200 0.9198 0.0000
# 10 texture coords

g Bound
s 1
f 97/117/281 98/118/282 99/119/283 100/120/284 
f 97/117/285 100/120/286 101/121/287 96/116/288 
f 95/115/289 96/116/290 101/121/291 102/122/292 
f 94/114/293 95/115/294 102/122/295 93/113/296 
# 4 polygons

