# 3ds Max Wavefront OBJ Exporter v0.97b - (c)2007 guruware
# File Created: 23.01.2017 15:48:26

#
# object Wall
#

v  10.0000 20.0001 41.3391
v  10.0000 20.0001 42.3391
v  0.0000 20.0001 42.3391
v  0.0000 20.0001 41.3391
v  0.0000 25.0001 41.3391
v  10.0000 25.0001 41.3391
v  10.0000 5.0001 41.3391
v  10.0000 5.0001 42.3391
v  10.0000 25.0001 42.3391
v  0.0000 25.0001 42.3391
v  0.0000 5.0001 42.3391
v  0.0000 5.0001 41.3391
v  -1.0000 20.0001 41.3391
v  -1.0000 25.0001 41.3391
v  29.0000 25.0001 41.3391
v  29.0000 20.0001 41.3391
v  29.0000 5.0001 41.3391
v  10.0000 0.0001 41.3391
v  10.0000 0.0001 42.3391
v  30.0000 5.0001 42.3391
v  30.0000 20.0001 42.3391
v  30.0000 25.0001 42.3391
v  0.0000 25.0001 52.3391
v  0.0000 20.0001 52.3391
v  0.0000 5.0001 52.3391
v  0.0000 0.0001 42.3391
v  0.0000 0.0001 41.3391
v  -1.0000 5.0001 41.3391
v  -1.0000 20.0001 51.3391
v  -1.0000 25.0001 51.3391
v  29.0000 25.0001 9.4999
v  29.0000 20.0001 9.4999
v  29.0000 5.0001 9.4999
v  29.0000 5.0001 20.0000
v  29.0000 8.8412 20.0000
v  29.0000 8.8412 30.0000
v  29.0000 5.0001 30.0000
v  29.0000 0.0001 41.3391
v  30.0000 0.0001 42.3391
v  30.0000 5.0001 30.0000
v  30.0000 8.8412 30.0000
v  30.0000 8.8412 20.0000
v  30.0000 5.0001 20.0000
v  30.0000 5.0001 9.9999
v  30.0000 20.0001 9.9999
v  30.0000 25.0001 9.9999
v  -20.0000 25.0001 52.3391
v  -20.0000 20.0001 52.3391
v  -20.0000 5.0001 52.3391
v  0.0000 0.0001 52.3391
v  -1.0000 0.0001 41.3391
v  -1.0000 5.0001 51.3391
v  -19.0000 20.0001 51.3391
v  -19.0000 25.0001 51.3391
v  39.0000 25.0001 1.9999
v  39.0000 20.0001 1.9999
v  39.0000 5.0001 1.9999
v  29.0000 0.0001 9.4999
v  29.0000 0.0001 20.0000
v  29.0000 0.0001 30.0000
v  30.0000 0.0001 30.0000
v  30.0000 0.0001 20.0000
v  30.0000 0.0001 9.9999
v  40.0000 5.0001 2.4999
v  40.0000 20.0001 2.4999
v  40.0000 25.0001 2.4999
v  -20.0000 25.0001 -15.0001
v  -20.0000 20.0001 -15.0001
v  -20.0000 5.0001 -15.0001
v  -20.0000 0.0001 52.3391
v  -1.0000 0.0001 51.3391
v  -19.0000 5.0001 51.3391
v  -19.0000 20.0001 -14.5859
v  -19.0000 25.0001 -14.5859
v  39.0000 25.0001 -12.0001
v  39.0000 20.0001 -12.0001
v  39.0000 5.0001 -12.0001
v  39.0000 0.0001 1.9999
v  40.0000 0.0001 2.4999
v  40.0000 5.0001 -12.5001
v  40.0000 20.0001 -12.5001
v  40.0000 25.0001 -12.5001
v  -15.0000 25.0001 -20.0001
v  -15.0000 20.0001 -20.0001
v  -15.0000 5.0001 -20.0001
v  -20.0000 0.0001 -15.0001
v  -19.0000 0.0001 51.3391
v  -19.0000 5.0001 -14.5859
v  -14.5858 20.0001 -19.0001
v  -14.5858 25.0001 -19.0001
v  29.6667 25.0001 -19.0001
v  29.6667 20.0001 -19.0001
v  29.6667 5.0001 -19.0001
v  39.0000 0.0001 -12.0001
v  40.0000 0.0001 -12.5001
v  30.0000 5.0001 -20.0001
v  30.0000 20.0001 -20.0001
v  30.0000 25.0001 -20.0001
v  -15.0000 0.0001 -20.0001
v  -19.0000 0.0001 -14.5859
v  -14.5858 5.0001 -19.0001
v  29.6667 0.0001 -19.0001
v  30.0000 0.0001 -20.0001
v  -14.5858 0.0001 -19.0001
# 104 vertices

vn -0.3015 -0.3015 0.9045
vn 0.9045 -0.3015 0.3015
vn 0.3015 -0.3015 -0.9045
vn -0.3015 -0.3015 -0.9045
vn 0.0000 0.0000 -1.0000
vn 0.0000 0.0000 -1.0000
vn -0.3015 -0.3015 -0.9045
vn 0.3015 -0.3015 -0.9045
vn -0.7071 0.0000 0.7071
vn -0.3015 -0.3015 0.9045
vn -0.3015 -0.3015 -0.9045
vn -0.7071 0.0000 -0.7071
vn 0.0000 0.0000 1.0000
vn 0.7071 0.0000 0.7071
vn 0.9045 -0.3015 0.3015
vn -0.3015 -0.3015 0.9045
vn 0.7071 0.0000 -0.7071
vn 0.3015 -0.3015 -0.9045
vn 0.9045 -0.3015 0.3015
vn 1.0000 0.0000 -0.0000
vn -0.7071 0.0000 -0.7071
vn 0.0000 0.0000 -1.0000
vn 0.3015 -0.3015 -0.9045
vn -0.7071 0.0000 -0.7071
vn 0.0000 0.0000 -1.0000
vn -0.7071 0.0000 -0.7071
vn -0.7071 0.0000 -0.7071
vn -0.3015 -0.3015 -0.9045
vn -0.7071 0.0000 -0.7071
vn -0.3015 -0.3015 -0.9045
vn -0.7071 0.0000 -0.7071
vn -0.7071 0.0000 -0.7071
vn -0.7071 0.0000 0.7071
vn -0.7071 0.0000 0.7071
vn -0.7071 0.0000 -0.7071
vn -0.7071 0.0000 -0.7071
vn 0.7071 0.0000 0.7071
vn 0.7071 0.0000 0.7071
vn -0.3015 -0.3015 0.9045
vn -0.7071 0.0000 0.7071
vn 0.7071 0.0000 0.7071
vn 0.0000 0.0000 1.0000
vn -0.3015 -0.3015 0.9045
vn 0.7071 0.0000 0.7071
vn 0.7071 0.0000 0.7071
vn 0.7071 0.0000 0.7071
vn 0.7071 0.0000 0.7071
vn 0.9045 -0.3015 0.3015
vn 1.0000 0.0000 -0.0000
vn 0.9045 -0.3015 0.3015
vn 0.7071 0.0000 0.7071
vn 0.7071 0.0000 0.7071
vn 0.7071 0.0000 -0.7071
vn 0.7071 0.0000 -0.7071
vn 1.0000 0.0000 -0.0000
vn 1.0000 0.0000 -0.0000
vn -0.7071 0.0000 -0.7071
vn -0.7071 0.0000 -0.7071
vn 0.3015 -0.3015 -0.9045
vn 0.7071 0.0000 -0.7071
vn -0.7071 0.0000 -0.7071
vn -0.7071 0.0000 -0.7071
vn -0.7071 0.0000 -0.7071
vn -0.7071 0.0000 -0.7071
vn -0.7071 0.0000 -0.7071
vn -0.8944 0.0000 -0.4472
vn -0.8944 0.0000 -0.4472
vn -0.7071 0.0000 -0.7071
vn -0.8944 0.0000 -0.4472
vn -1.0000 0.0000 -0.0000
vn -1.0000 0.0000 -0.0000
vn -0.7071 0.0000 -0.7071
vn -1.0000 0.0000 -0.0000
vn -1.0000 0.0000 -0.0000
vn -0.7071 0.0000 -0.7071
vn -0.7071 0.0000 -0.7071
vn -1.0000 0.0000 -0.0000
vn -1.0000 0.0000 -0.0000
vn -0.7071 0.0000 -0.7071
vn -0.8944 0.0000 -0.4472
vn -0.7071 0.0000 -0.7071
vn -0.8944 0.0000 -0.4472
vn -0.7071 0.0000 -0.7071
vn -0.7071 0.0000 -0.7071
vn -0.7071 0.0000 -0.7071
vn -0.7071 0.0000 -0.7071
vn 0.7071 0.0000 0.7071
vn 0.7071 0.0000 0.7071
vn -0.7071 0.0000 0.7071
vn -0.7071 0.0000 0.7071
vn 0.7071 0.0000 0.7071
vn 1.0000 0.0000 -0.0000
vn 1.0000 0.0000 -0.0000
vn 0.8944 0.0000 0.4472
vn 1.0000 0.0000 -0.0000
vn 1.0000 0.0000 -0.0000
vn 0.8944 0.0000 0.4472
vn 0.8944 0.0000 0.4472
vn 1.0000 0.0000 -0.0000
vn 1.0000 0.0000 -0.0000
vn 0.8944 0.0000 0.4472
vn 0.7071 0.0000 0.7071
vn 0.8944 0.0000 0.4472
vn 0.7071 0.0000 0.7071
vn 0.8944 0.0000 0.4472
vn 0.7071 0.0000 0.7071
vn 0.7071 0.0000 0.7071
vn 0.8944 0.0000 0.4472
vn 0.7071 0.0000 0.7071
vn -0.7071 0.0000 0.7071
vn -0.7071 0.0000 0.7071
vn 0.7071 0.0000 0.7071
vn 0.7071 0.0000 0.7071
vn 0.7071 0.0000 0.7071
vn -0.7071 0.0000 0.7071
vn -0.7071 0.0000 0.7071
vn 1.0000 0.0000 -0.0000
vn 1.0000 0.0000 -0.0000
vn 0.7071 0.0000 0.7071
vn 0.7071 0.0000 0.7071
vn -0.7071 0.0000 -0.7071
vn -0.7071 0.0000 -0.7071
vn 0.7071 0.0000 -0.7071
vn 0.7071 0.0000 -0.7071
vn -0.7071 0.0000 -0.7071
vn -0.7071 0.0000 -0.7071
vn -0.7071 0.0000 -0.7071
vn -0.7071 0.0000 -0.7071
vn 0.7071 0.0000 -0.7071
vn -0.7071 0.0000 -0.7071
vn -0.7071 0.0000 -0.7071
vn 0.7071 0.0000 -0.7071
vn -0.8944 0.0000 -0.4472
vn -0.8944 0.0000 -0.4472
vn -0.8944 0.0000 -0.4472
vn -0.8944 0.0000 -0.4472
vn -0.8944 0.0000 -0.4472
vn -0.8944 0.0000 -0.4472
vn -0.8944 0.0000 -0.4472
vn -0.8944 0.0000 -0.4472
vn -1.0000 0.0000 -0.0000
vn -1.0000 0.0000 -0.0000
vn -0.8944 0.0000 -0.4472
vn -0.8944 0.0000 -0.4472
vn -0.7071 0.0000 -0.7071
vn -0.7071 0.0000 -0.7071
vn -1.0000 0.0000 -0.0000
vn -1.0000 0.0000 -0.0000
vn 1.0000 0.0000 -0.0000
vn 1.0000 0.0000 -0.0000
vn 0.7071 0.0000 0.7071
vn 0.7071 0.0000 0.7071
vn 0.8944 0.0000 0.4472
vn 0.8944 0.0000 0.4472
vn 1.0000 0.0000 -0.0000
vn 1.0000 0.0000 -0.0000
vn 0.8944 0.0000 0.4472
vn 0.8944 0.0000 0.4472
vn 0.8944 0.0000 0.4472
vn 0.8944 0.0000 0.4472
vn 0.8944 0.0000 0.4472
vn 0.8944 0.0000 0.4472
vn 0.8944 0.0000 0.4472
vn 0.8944 0.0000 0.4472
vn -0.7071 0.0000 0.7071
vn -0.9239 0.0000 -0.3827
vn -0.9239 0.0000 -0.3827
vn -0.7071 0.0000 0.7071
vn -0.7071 0.0000 0.7071
vn -0.7071 0.0000 0.7071
vn -0.9239 0.0000 -0.3827
vn -0.9239 0.0000 -0.3827
vn 0.7071 0.0000 0.7071
vn 0.7071 0.0000 0.7071
vn -0.7071 0.0000 0.7071
vn -0.7071 0.0000 0.7071
vn -0.7071 0.0000 -0.7071
vn -0.7071 0.0000 -0.7071
vn -0.7071 0.0000 -0.7071
vn -0.7071 0.0000 -0.7071
vn 0.7071 0.0000 -0.7071
vn 0.7071 0.0000 -0.7071
vn -0.7071 0.0000 -0.7071
vn -0.7071 0.0000 -0.7071
vn 0.9239 0.0000 0.3827
vn 0.7071 0.0000 -0.7071
vn 0.7071 0.0000 -0.7071
vn 0.9239 0.0000 0.3827
vn -0.8944 0.0000 -0.4472
vn -0.8944 0.0000 0.4472
vn -0.8944 0.0000 0.4472
vn -0.8944 0.0000 -0.4472
vn -0.8944 0.0000 -0.4472
vn -0.8944 0.0000 -0.4472
vn -0.8944 0.0000 0.4472
vn -0.8944 0.0000 0.4472
vn -0.8944 0.0000 -0.4472
vn -0.8944 0.0000 -0.4472
vn -0.8944 0.0000 -0.4472
vn -0.8944 0.0000 -0.4472
vn 0.8944 0.0000 0.4472
vn 0.8944 0.0000 0.4472
vn 0.8944 0.0000 0.4472
vn 0.8944 0.0000 0.4472
vn 0.8944 0.0000 -0.4472
vn 0.8944 0.0000 -0.4472
vn 0.8944 0.0000 0.4472
vn 0.8944 0.0000 0.4472
vn 0.8944 0.0000 -0.4472
vn 0.8944 0.0000 0.4472
vn 0.8944 0.0000 0.4472
vn 0.8944 0.0000 -0.4472
vn -0.9239 0.0000 -0.3827
vn -0.3827 0.0000 -0.9239
vn -0.3827 0.0000 -0.9239
vn -0.9239 0.0000 -0.3827
vn -0.9239 0.0000 -0.3827
vn -0.9239 0.0000 -0.3827
vn -0.3827 0.0000 -0.9239
vn -0.3827 0.0000 -0.9239
vn -0.7071 0.0000 0.7071
vn -0.7071 0.0000 0.7071
vn -0.9239 0.0000 -0.3827
vn -0.9239 0.0000 -0.3827
vn 0.7071 0.0000 -0.7071
vn 0.7071 0.0000 -0.7071
vn -0.7071 0.0000 -0.7071
vn -0.7071 0.0000 -0.7071
vn 0.9239 0.0000 0.3827
vn 0.9239 0.0000 0.3827
vn 0.7071 0.0000 -0.7071
vn 0.7071 0.0000 -0.7071
vn 0.3827 0.0000 0.9239
vn 0.9239 0.0000 0.3827
vn 0.9239 0.0000 0.3827
vn 0.3827 0.0000 0.9239
vn -0.8944 0.0000 0.4472
vn -0.3162 0.0000 0.9487
vn -0.3162 0.0000 0.9487
vn -0.8944 0.0000 0.4472
vn -0.8944 0.0000 0.4472
vn -0.8944 0.0000 0.4472
vn -0.3162 0.0000 0.9487
vn -0.3162 0.0000 0.9487
vn -0.8944 0.0000 -0.4472
vn -0.8944 0.0000 -0.4472
vn -0.8944 0.0000 0.4472
vn -0.8944 0.0000 0.4472
vn 0.8944 0.0000 -0.4472
vn 0.8944 0.0000 -0.4472
vn 0.8944 0.0000 0.4472
vn 0.8944 0.0000 0.4472
vn 0.3162 0.0000 -0.9487
vn 0.3162 0.0000 -0.9487
vn 0.8944 0.0000 -0.4472
vn 0.8944 0.0000 -0.4472
vn 0.3162 0.0000 -0.9487
vn 0.8944 0.0000 -0.4472
vn 0.8944 0.0000 -0.4472
vn 0.3162 0.0000 -0.9487
vn -0.3827 0.0000 -0.9239
vn 0.3162 0.0000 -0.9487
vn 0.3162 0.0000 -0.9487
vn -0.3827 0.0000 -0.9239
vn -0.3827 0.0000 -0.9239
vn -0.3827 0.0000 -0.9239
vn 0.3162 0.0000 -0.9487
vn 0.3162 0.0000 -0.9487
vn -0.9239 0.0000 -0.3827
vn -0.9239 0.0000 -0.3827
vn -0.3827 0.0000 -0.9239
vn -0.3827 0.0000 -0.9239
vn 0.9239 0.0000 0.3827
vn 0.9239 0.0000 0.3827
vn 0.7071 0.0000 -0.7071
vn 0.7071 0.0000 -0.7071
vn 0.3827 0.0000 0.9239
vn 0.3827 0.0000 0.9239
vn 0.9239 0.0000 0.3827
vn 0.9239 0.0000 0.3827
vn -0.3162 0.0000 0.9487
vn 0.3827 0.0000 0.9239
vn 0.3827 0.0000 0.9239
vn -0.3162 0.0000 0.9487
vn -0.3162 0.0000 0.9487
vn -0.3162 0.0000 0.9487
vn 0.3827 0.0000 0.9239
vn 0.3827 0.0000 0.9239
vn -0.8944 0.0000 0.4472
vn -0.8944 0.0000 0.4472
vn -0.3162 0.0000 0.9487
vn -0.3162 0.0000 0.9487
vn 0.3162 0.0000 -0.9487
vn 0.3162 0.0000 -0.9487
vn 0.8944 0.0000 -0.4472
vn 0.8944 0.0000 -0.4472
vn -0.3827 0.0000 -0.9239
vn -0.3827 0.0000 -0.9239
vn 0.3162 0.0000 -0.9487
vn 0.3162 0.0000 -0.9487
vn 0.3827 0.0000 0.9239
vn 0.3827 0.0000 0.9239
vn 0.9239 0.0000 0.3827
vn 0.9239 0.0000 0.3827
vn -0.3162 0.0000 0.9487
vn -0.3162 0.0000 0.9487
vn 0.3827 0.0000 0.9239
vn 0.3827 0.0000 0.9239
# 308 vertex normals

vt 0.6338 0.9296 0.0000
vt 0.6338 0.9453 0.0000
vt 0.4764 0.9453 0.0000
vt 0.4764 0.9296 0.0000
vt 1.3096 0.7886 0.0000
vt 1.3096 0.8673 0.0000
vt 1.1525 0.8673 0.0000
vt 1.1525 0.7886 0.0000
vt 0.8699 0.9296 0.0000
vt 0.8699 0.9453 0.0000
vt 0.6338 0.9453 0.0000
vt 0.6338 0.9296 0.0000
vt 1.3759 0.3544 0.0000
vt 1.3759 0.4331 0.0000
vt 1.2185 0.4331 0.0000
vt 1.2185 0.3544 0.0000
vt 0.2407 0.9453 0.0000
vt 0.2407 0.9296 0.0000
vt 0.4764 0.9296 0.0000
vt 0.4764 0.9453 0.0000
vt 1.3253 0.7886 0.0000
vt 1.3253 0.8673 0.0000
vt 1.3096 0.8673 0.0000
vt 1.3096 0.7886 0.0000
vt 1.1525 0.7886 0.0000
vt 1.1525 0.8673 0.0000
vt 0.8538 0.8673 0.0000
vt 0.8538 0.7886 0.0000
vt 0.8542 0.5525 0.0000
vt 1.1525 0.5525 0.0000
vt 1.1525 0.7886 0.0000
vt 0.8538 0.7886 0.0000
vt 0.9486 0.9296 0.0000
vt 0.9486 0.9453 0.0000
vt 0.8699 0.9453 0.0000
vt 0.8699 0.9296 0.0000
vt 1.3759 0.1185 0.0000
vt 1.6903 0.1185 0.0000
vt 1.6903 0.3544 0.0000
vt 1.3759 0.3544 0.0000
vt 1.6903 0.3544 0.0000
vt 1.6903 0.4331 0.0000
vt 1.3759 0.4331 0.0000
vt 1.3759 0.3544 0.0000
vt 1.2185 0.3544 0.0000
vt 1.2185 0.4331 0.0000
vt 1.0611 0.4331 0.0000
vt 1.0611 0.3544 0.0000
vt 1.0611 0.1185 0.0000
vt 1.2185 0.1185 0.0000
vt 1.2185 0.3544 0.0000
vt 1.0611 0.3544 0.0000
vt 0.1620 0.9453 0.0000
vt 0.1620 0.9296 0.0000
vt 0.2407 0.9296 0.0000
vt 0.2407 0.9453 0.0000
vt 1.3096 0.5525 0.0000
vt 1.3253 0.5525 0.0000
vt 1.3253 0.7886 0.0000
vt 1.3096 0.7886 0.0000
vt 1.4825 0.7886 0.0000
vt 1.4825 0.8673 0.0000
vt 1.3253 0.8673 0.0000
vt 1.3253 0.7886 0.0000
vt 0.8538 0.7886 0.0000
vt 0.8538 0.8673 0.0000
vt 0.4529 0.8673 0.0000
vt 0.4529 0.7886 0.0000
vt 0.4529 0.5525 0.0000
vt 0.5852 0.5525 0.0000
vt 0.5852 0.6130 0.0000
vt 0.7112 0.6130 0.0000
vt 0.7113 0.5525 0.0000
vt 0.8542 0.5525 0.0000
vt 0.8538 0.7886 0.0000
vt 0.4529 0.7886 0.0000
vt 0.8542 0.4740 0.0000
vt 1.1525 0.4740 0.0000
vt 1.1525 0.5525 0.0000
vt 0.8542 0.5525 0.0000
vt 1.3759 0.0398 0.0000
vt 1.6903 0.0398 0.0000
vt 1.6903 0.1185 0.0000
vt 1.3759 0.1185 0.0000
vt 1.6903 0.1185 0.0000
vt 1.8604 0.1185 0.0000
vt 1.8604 0.1789 0.0000
vt 1.9982 0.1789 0.0000
vt 1.9982 0.1185 0.0000
vt 2.1361 0.1185 0.0000
vt 2.1361 0.3544 0.0000
vt 1.6903 0.3544 0.0000
vt 2.1361 0.3544 0.0000
vt 2.1361 0.4331 0.0000
vt 1.6903 0.4331 0.0000
vt 1.6903 0.3544 0.0000
vt 1.0611 0.3544 0.0000
vt 1.0611 0.4331 0.0000
vt 0.7467 0.4331 0.0000
vt 0.7467 0.3544 0.0000
vt 0.7467 0.1185 0.0000
vt 1.0611 0.1185 0.0000
vt 1.0611 0.3544 0.0000
vt 0.7467 0.3544 0.0000
vt 1.0611 0.0398 0.0000
vt 1.2182 0.0398 0.0000
vt 1.2185 0.1185 0.0000
vt 1.0611 0.1185 0.0000
vt 1.3096 0.4740 0.0000
vt 1.3253 0.4740 0.0000
vt 1.3253 0.5525 0.0000
vt 1.3096 0.5525 0.0000
vt 1.3253 0.5525 0.0000
vt 1.4825 0.5525 0.0000
vt 1.4825 0.7886 0.0000
vt 1.3253 0.7886 0.0000
vt 1.7660 0.7886 0.0000
vt 1.7660 0.8673 0.0000
vt 1.4825 0.8673 0.0000
vt 1.4825 0.7886 0.0000
vt 0.4529 0.7886 0.0000
vt 0.4529 0.8673 0.0000
vt 0.2565 0.8673 0.0000
vt 0.2565 0.7886 0.0000
vt 0.2565 0.5525 0.0000
vt 0.4529 0.5525 0.0000
vt 0.4529 0.7886 0.0000
vt 0.2565 0.7886 0.0000
vt 0.4529 0.4740 0.0000
vt 0.5852 0.4740 0.0000
vt 0.5852 0.5525 0.0000
vt 0.4529 0.5525 0.0000
vt 0.7113 0.4740 0.0000
vt 0.8542 0.4740 0.0000
vt 0.8542 0.5525 0.0000
vt 0.7113 0.5525 0.0000
vt 1.6903 0.0398 0.0000
vt 1.8604 0.0398 0.0000
vt 1.8604 0.1185 0.0000
vt 1.6903 0.1185 0.0000
vt 1.9982 0.0398 0.0000
vt 2.1361 0.0398 0.0000
vt 2.1361 0.1185 0.0000
vt 1.9982 0.1185 0.0000
vt 2.1361 0.1185 0.0000
vt 2.3328 0.1185 0.0000
vt 2.3328 0.3544 0.0000
vt 2.1361 0.3544 0.0000
vt 2.3328 0.3544 0.0000
vt 2.3328 0.4331 0.0000
vt 2.1361 0.4331 0.0000
vt 2.1361 0.3544 0.0000
vt 0.7467 0.3544 0.0000
vt 0.7467 0.4331 0.0000
vt 0.0388 0.4331 0.0000
vt 0.0388 0.3544 0.0000
vt 0.0388 0.1185 0.0000
vt 0.7467 0.1185 0.0000
vt 0.7467 0.3544 0.0000
vt 0.0388 0.3544 0.0000
vt 0.7464 0.0398 0.0000
vt 1.0611 0.0398 0.0000
vt 1.0611 0.1185 0.0000
vt 0.7467 0.1185 0.0000
vt 1.3253 0.4740 0.0000
vt 1.4825 0.4740 0.0000
vt 1.4825 0.5525 0.0000
vt 1.3253 0.5525 0.0000
vt 1.4825 0.5525 0.0000
vt 1.7656 0.5525 0.0000
vt 1.7660 0.7886 0.0000
vt 1.4825 0.7886 0.0000
vt 2.6416 0.7886 0.0000
vt 2.6416 0.8673 0.0000
vt 1.7660 0.8673 0.0000
vt 1.7660 0.7886 0.0000
vt 0.2565 0.7886 0.0000
vt 0.2565 0.8673 0.0000
vt 0.0366 0.8673 0.0000
vt 0.0366 0.7886 0.0000
vt 0.0366 0.5525 0.0000
vt 0.2565 0.5525 0.0000
vt 0.2565 0.7886 0.0000
vt 0.0366 0.7886 0.0000
vt 0.2565 0.4740 0.0000
vt 0.4529 0.4740 0.0000
vt 0.4529 0.5525 0.0000
vt 0.2565 0.5525 0.0000
vt 2.1361 0.0398 0.0000
vt 2.3328 0.0398 0.0000
vt 2.3328 0.1185 0.0000
vt 2.1361 0.1185 0.0000
vt 2.3328 0.1185 0.0000
vt 2.5689 0.1185 0.0000
vt 2.5689 0.3544 0.0000
vt 2.3328 0.3544 0.0000
vt 2.5689 0.3544 0.0000
vt 2.5689 0.4331 0.0000
vt 2.3328 0.4331 0.0000
vt 2.3328 0.3544 0.0000
vt 3.5847 0.3544 0.0000
vt 3.5847 0.4331 0.0000
vt 3.4735 0.4331 0.0000
vt 3.4735 0.3544 0.0000
vt 3.4735 0.1185 0.0000
vt 3.5847 0.1185 0.0000
vt 3.5847 0.3544 0.0000
vt 3.4735 0.3544 0.0000
vt 0.0388 0.0398 0.0000
vt 0.7464 0.0398 0.0000
vt 0.7467 0.1185 0.0000
vt 0.0388 0.1185 0.0000
vt 1.4825 0.4740 0.0000
vt 1.7656 0.4740 0.0000
vt 1.7656 0.5525 0.0000
vt 1.4825 0.5525 0.0000
vt 1.7656 0.5525 0.0000
vt 2.6416 0.5525 0.0000
vt 2.6416 0.7886 0.0000
vt 1.7660 0.7886 0.0000
vt 2.7400 0.7886 0.0000
vt 2.7400 0.8673 0.0000
vt 2.6416 0.8673 0.0000
vt 2.6416 0.7886 0.0000
vt 3.6201 0.7886 0.0000
vt 3.6201 0.8673 0.0000
vt 3.4366 0.8673 0.0000
vt 3.4366 0.7886 0.0000
vt 3.4366 0.5525 0.0000
vt 3.6201 0.5525 0.0000
vt 3.6201 0.7886 0.0000
vt 3.4366 0.7886 0.0000
vt 0.0366 0.4740 0.0000
vt 0.2565 0.4740 0.0000
vt 0.2565 0.5525 0.0000
vt 0.0366 0.5525 0.0000
vt 2.3328 0.0398 0.0000
vt 2.5689 0.0398 0.0000
vt 2.5689 0.1185 0.0000
vt 2.3328 0.1185 0.0000
vt 2.5689 0.1185 0.0000
vt 2.7655 0.1185 0.0000
vt 2.7655 0.3544 0.0000
vt 2.5689 0.3544 0.0000
vt 2.7655 0.3544 0.0000
vt 2.7655 0.4331 0.0000
vt 2.5689 0.4331 0.0000
vt 2.5689 0.3544 0.0000
vt 3.4735 0.3544 0.0000
vt 3.4735 0.4331 0.0000
vt 2.7655 0.4331 0.0000
vt 2.7655 0.3544 0.0000
vt 2.7655 0.1185 0.0000
vt 3.4735 0.1185 0.0000
vt 3.4735 0.3544 0.0000
vt 2.7655 0.3544 0.0000
vt 3.4735 0.0398 0.0000
vt 3.5847 0.0398 0.0000
vt 3.5847 0.1185 0.0000
vt 3.4735 0.1185 0.0000
vt 1.7656 0.4740 0.0000
vt 2.6416 0.4740 0.0000
vt 2.6416 0.5525 0.0000
vt 1.7656 0.5525 0.0000
vt 2.6416 0.5525 0.0000
vt 2.7400 0.5525 0.0000
vt 2.7400 0.7886 0.0000
vt 2.6416 0.7886 0.0000
vt 3.4366 0.7886 0.0000
vt 3.4366 0.8673 0.0000
vt 2.7400 0.8673 0.0000
vt 2.7400 0.7886 0.0000
vt 2.7400 0.5525 0.0000
vt 3.4366 0.5525 0.0000
vt 3.4366 0.7886 0.0000
vt 2.7400 0.7886 0.0000
vt 3.4362 0.4740 0.0000
vt 3.6201 0.4740 0.0000
vt 3.6201 0.5525 0.0000
vt 3.4366 0.5525 0.0000
vt 2.5689 0.0398 0.0000
vt 2.7655 0.0398 0.0000
vt 2.7655 0.1185 0.0000
vt 2.5689 0.1185 0.0000
vt 2.7655 0.0398 0.0000
vt 3.4735 0.0398 0.0000
vt 3.4735 0.1185 0.0000
vt 2.7655 0.1185 0.0000
vt 2.6416 0.4740 0.0000
vt 2.7400 0.4740 0.0000
vt 2.7400 0.5525 0.0000
vt 2.6416 0.5525 0.0000
vt 2.7400 0.4740 0.0000
vt 3.4362 0.4740 0.0000
vt 3.4366 0.5525 0.0000
vt 2.7400 0.5525 0.0000
# 296 texture coords

g Wall
s 1
f 2/2/1 3/3/2 4/4/3 1/1/4 
f 5/6/5 6/7/6 1/8/7 4/5/8 
f 8/10/9 2/11/10 1/12/11 7/9/12 
f 9/14/13 10/15/14 3/16/15 2/13/16 
f 12/18/17 4/19/18 3/20/19 11/17/20 
f 14/22/21 5/23/22 4/24/23 13/21/24 
f 6/26/25 15/27/26 16/28/27 1/25/28 
f 7/30/29 1/31/30 16/32/31 17/29/32 
f 19/34/33 8/35/34 7/36/35 18/33/36 
f 20/38/37 21/39/38 2/40/39 8/37/40 
f 22/42/41 9/43/42 2/44/43 21/41/44 
f 10/46/45 23/47/46 24/48/47 3/45/48 
f 11/50/49 3/51/50 24/52/51 25/49/52 
f 27/54/53 12/55/54 11/56/55 26/53/56 
f 28/58/57 13/59/58 4/60/59 12/57/60 
f 30/62/61 14/63/62 13/64/63 29/61/64 
f 15/66/65 31/67/66 32/68/67 16/65/68 
f 33/69/69 34/70/70 35/71/71 16/75/72 
f 36/72/73 37/73/74 17/74/75 16/75/76 
f 35/71/77 36/72/78 16/75/79 
f 33/69/80 16/75/81 32/76/82 
f 18/78/83 7/79/84 17/80/85 38/77/86 
f 39/82/87 20/83/88 8/84/89 19/81/90 
f 20/85/91 40/86/92 41/87/93 45/91/94 
f 42/88/95 43/89/96 44/90/97 45/91/98 
f 41/87/99 42/88/100 45/91/101 
f 20/85/102 45/91/103 21/92/104 
f 46/94/105 22/95/106 21/96/107 45/93/108 
f 23/98/109 47/99/110 48/100/111 24/97/112 
f 25/102/113 24/103/114 48/104/115 49/101/116 
f 26/106/117 11/107/118 25/108/119 50/105/120 
f 51/110/121 28/111/122 12/112/123 27/109/124 
f 52/114/125 29/115/126 13/116/127 28/113/128 
f 54/118/129 30/119/130 29/120/131 53/117/132 
f 31/122/133 55/123/134 56/124/135 32/121/136 
f 33/126/137 32/127/138 56/128/139 57/125/140 
f 59/130/141 34/131/142 33/132/143 58/129/144 
f 38/134/145 17/135/146 37/136/147 60/133/148 
f 61/138/149 40/139/150 20/140/151 39/137/152 
f 63/142/153 44/143/154 43/144/155 62/141/156 
f 64/146/157 65/147/158 45/148/159 44/145/160 
f 66/150/161 46/151/162 45/152/163 65/149/164 
f 47/154/165 67/155/166 68/156/167 48/153/168 
f 49/158/169 48/159/170 68/160/171 69/157/172 
f 50/162/173 25/163/174 49/164/175 70/161/176 
f 71/166/177 52/167/178 28/168/179 51/165/180 
f 72/170/181 53/171/182 29/172/183 52/169/184 
f 74/174/185 54/175/186 53/176/187 73/173/188 
f 55/178/189 75/179/190 76/180/191 56/177/192 
f 57/182/193 56/183/194 76/184/195 77/181/196 
f 58/186/197 33/187/198 57/188/199 78/185/200 
f 79/190/201 64/191/202 44/192/203 63/189/204 
f 80/194/205 81/195/206 65/196/207 64/193/208 
f 82/198/209 66/199/210 65/200/211 81/197/212 
f 67/202/213 83/203/214 84/204/215 68/201/216 
f 69/206/217 68/207/218 84/208/219 85/205/220 
f 70/210/221 49/211/222 69/212/223 86/209/224 
f 87/214/225 72/215/226 52/216/227 71/213/228 
f 88/218/229 73/219/230 53/220/231 72/217/232 
f 90/222/233 74/223/234 73/224/235 89/221/236 
f 75/226/237 91/227/238 92/228/239 76/225/240 
f 77/230/241 76/231/242 92/232/243 93/229/244 
f 78/234/245 57/235/246 77/236/247 94/233/248 
f 95/238/249 80/239/250 64/240/251 79/237/252 
f 96/242/253 97/243/254 81/244/255 80/241/256 
f 98/246/257 82/247/258 81/248/259 97/245/260 
f 83/250/261 98/251/262 97/252/263 84/249/264 
f 85/254/265 84/255/266 97/256/267 96/253/268 
f 86/258/269 69/259/270 85/260/271 99/257/272 
f 100/262/273 88/263/274 72/264/275 87/261/276 
f 101/266/277 89/267/278 73/268/279 88/265/280 
f 91/270/281 90/271/282 89/272/283 92/269/284 
f 93/274/285 92/275/286 89/276/287 101/273/288 
f 94/278/289 77/279/290 93/280/291 102/277/292 
f 103/282/293 96/283/294 80/284/295 95/281/296 
f 99/286/297 85/287/298 96/288/299 103/285/300 
f 104/290/301 101/291/302 88/292/303 100/289/304 
f 102/294/305 93/295/306 101/296/307 104/293/308 
# 74 polygons - 4 triangles

#
# object Bound
#

v  -19.0000 0.0000 51.3392
v  -1.0000 0.0000 51.3392
v  -1.0000 0.0000 41.3392
v  29.0000 0.0000 41.3392
v  29.0000 0.0000 9.5000
v  39.0000 0.0000 2.0000
v  39.0000 0.0000 -12.0000
v  29.6667 0.0000 -19.0000
v  -14.5858 0.0000 -19.0000
v  -19.0000 0.0000 -14.5858
# 10 vertices

vn 0.0000 1.0000 -0.0000
vn 0.0000 1.0000 -0.0000
vn 0.0000 1.0000 -0.0000
vn 0.0000 1.0000 -0.0000
vn 0.0000 1.0000 -0.0000
vn 0.0000 1.0000 -0.0000
vn 0.0000 1.0000 -0.0000
vn 0.0000 1.0000 -0.0000
vn 0.0000 1.0000 -0.0000
vn 0.0000 1.0000 -0.0000
vn 0.0000 1.0000 -0.0000
vn 0.0000 1.0000 -0.0000
vn 0.0000 1.0000 -0.0000
vn 0.0000 1.0000 -0.0000
vn 0.0000 1.0000 -0.0000
vn 0.0000 1.0000 -0.0000
# 16 vertex normals

vt 0.0200 0.0200 0.0000
vt 0.2657 0.0200 0.0000
vt 0.2657 0.1565 0.0000
vt 0.6751 0.1565 0.0000
vt 0.6751 0.5910 0.0000
vt 0.8116 0.6934 0.0000
vt 0.8116 0.8845 0.0000
vt 0.6842 0.9800 0.0000
vt 0.0802 0.9800 0.0000
vt 0.0200 0.9198 0.0000
# 10 texture coords

g Bound
s 1
f 110/302/309 111/303/310 112/304/311 109/301/312 
f 113/305/313 108/300/314 109/301/315 112/304/316 
f 107/299/317 108/300/318 113/305/319 114/306/320 
f 114/306/321 105/297/322 106/298/323 107/299/324 
# 4 polygons

