# 3ds Max Wavefront OBJ Exporter v0.97b - (c)2007 guruware
# File Created: 12.10.2016 16:53:37

#
# object Book
#

v  -30.2675 0.6826 -0.3675
v  49.1468 0.6826 -0.0000
v  49.1468 108.5324 0.0000
v  -27.9851 108.5324 0.0000
v  -30.2675 108.5324 -0.3675
v  -30.2675 0.6826 -14.3111
v  -30.2675 108.5324 -14.3111
v  -27.9851 108.5324 -14.6786
v  49.1468 108.5324 -14.6786
v  49.1468 0.6826 -14.6786
v  -33.5742 108.5324 -6.5238
v  -33.5742 108.5324 -8.1548
v  -33.5742 0.6826 -8.1548
v  -33.5742 0.6826 -6.5238
v  -32.1336 108.5324 -13.0476
v  -32.6262 108.5324 -11.4167
v  -33.0952 108.5324 -9.7857
v  -33.0952 108.5324 -4.8929
v  -32.6262 108.5324 -3.2619
v  -32.1336 108.5324 -1.6309
v  -30.4612 0.6826 -1.4410
v  49.1468 0.6826 -1.4410
v  -32.1336 0.6826 -1.6310
v  -32.6262 0.6826 -3.2619
v  -33.0952 0.6826 -4.8929
v  -33.0952 0.6826 -9.7857
v  -32.6262 0.6826 -11.4167
v  -32.1336 0.6826 -13.0477
v  -30.4612 0.6826 -13.2376
v  49.1468 0.6826 -13.2376
v  49.1468 108.5324 -13.2376
v  -27.0469 108.5324 -13.2376
v  -27.0469 108.5324 -1.4410
v  49.1468 108.5324 -1.4410
v  -26.7636 1.8132 -1.8520
v  47.2971 1.8132 -1.8520
v  -26.7636 1.8132 -12.8266
v  47.2971 1.8132 -12.8266
v  47.2971 107.4044 -12.8266
v  -26.9557 107.4044 -12.8266
v  -26.9557 107.4044 -1.8520
v  47.2971 107.4044 -1.8520
# 42 vertices

vn -0.0032 -0.0009 1.0000
vn -0.0030 -0.0000 1.0000
vn -0.0012 -0.0013 1.0000
vn -0.0515 -0.0011 0.9987
vn -0.1042 -0.0000 0.9946
vn -0.0032 -0.0009 -1.0000
vn -0.1042 0.0000 -0.9946
vn -0.0515 -0.0011 -0.9987
vn -0.0012 -0.0013 -1.0000
vn -0.0030 0.0000 -1.0000
vn -0.9776 -0.0000 0.2103
vn -0.9776 0.0000 -0.2103
vn 0.0000 1.0000 0.0000
vn 0.0000 -1.0000 -0.0000
vn -0.0000 -1.0000 -0.0000
vn 1.0000 0.0000 -0.0000
vn 0.0000 -0.2303 -0.9731
vn 0.2924 -0.9563 -0.0000
vn 0.0000 -0.2303 0.9731
vn 0.1432 -0.0000 0.9897
vn -0.0000 0.2308 0.9730
vn 0.9967 0.0807 0.0000
vn -0.0000 0.2308 -0.9730
vn 0.1432 0.0000 -0.9897
vn -0.7003 0.0000 -0.7139
vn -0.4034 0.0000 -0.9150
vn -0.9110 0.0000 -0.4125
vn -0.9131 0.0000 -0.4076
vn -0.7003 -0.0000 0.7139
vn -0.4034 -0.0000 0.9150
vn -0.9110 -0.0000 0.4125
vn -0.9131 -0.0000 0.4076
# 32 vertex normals

vt 0.5414 0.4853 0.0975
vt 0.9963 0.4853 0.1776
vt 0.9963 0.9591 0.1776
vt 0.5545 0.9591 0.1776
vt 0.5414 0.9591 0.0975
vt 0.5160 0.5257 -0.0975
vt 0.5160 0.9995 -0.0975
vt 0.5029 0.9995 -0.1776
vt 0.0611 0.9995 -0.1776
vt 0.0611 0.5257 -0.1776
vt 0.2479 0.0285 0.0000
vt 0.2479 0.0106 0.0000
vt 0.4088 0.0106 -0.0000
vt 0.4088 0.0285 -0.0000
vt 0.0005 0.7529 0.0000
vt 0.0044 0.7564 0.0000
vt 0.0076 0.7685 0.0000
vt 0.0084 0.7842 0.0000
vt 0.0092 0.7998 0.0000
vt 0.0100 0.8155 0.0000
vt 0.0100 0.8312 0.0000
vt 0.0092 0.8468 0.0000
vt 0.0084 0.8625 0.0000
vt 0.0076 0.8781 0.0000
vt 0.0044 0.8903 0.0000
vt 0.0005 0.8938 0.0000
vt 0.2176 0.3338 -0.0050
vt 0.0819 0.3302 -0.0050
vt 0.0816 0.3199 -0.0050
vt 0.2176 0.3199 -0.0050
vt 0.0787 0.3181 -0.0050
vt 0.0779 0.3023 -0.0050
vt 0.0771 0.2866 -0.0050
vt 0.0762 0.2709 -0.0050
vt 0.0762 0.2552 -0.0050
vt 0.0771 0.2395 -0.0050
vt 0.0779 0.2238 -0.0050
vt 0.0787 0.2081 -0.0050
vt 0.0819 0.1959 -0.0050
vt 0.0816 0.2063 -0.0050
vt 0.2176 0.1924 -0.0050
vt 0.2176 0.2063 -0.0050
vt 0.2479 0.0409 -0.0000
vt 0.4088 0.0409 0.0000
vt 0.4088 0.0567 0.0000
vt 0.2479 0.0567 -0.0000
vt 0.0914 0.2176 -0.0000
vt 0.2228 0.2176 0.0000
vt 0.2212 0.2315 0.0000
vt 0.0914 0.2315 -0.0000
vt 0.2228 0.3585 0.0000
vt 0.2212 0.3447 0.0000
vt 0.0914 0.3585 -0.0000
vt 0.0914 0.3447 -0.0000
vt 0.4088 0.0870 0.0000
vt 0.2479 0.0870 -0.0000
vt 0.2479 0.0712 -0.0000
vt 0.4088 0.0712 0.0000
vt 0.0611 0.0005 0.0451
vt 0.5208 0.0005 0.0451
vt 0.4994 0.0055 -0.0451
vt 0.0718 0.0055 -0.0451
vt 0.0879 0.2102 0.0050
vt 0.0879 0.3159 0.0050
vt 0.5358 0.0055 -0.0451
vt 0.9954 0.0055 -0.0451
vt 0.9848 0.0106 0.0451
vt 0.5571 0.0106 0.0451
vt 0.9954 0.4832 -0.0451
vt 0.9848 0.4782 0.0451
vt 0.5555 0.4832 -0.0451
vt 0.5560 0.4782 0.0451
vt 0.0476 0.7327 -0.0006
vt 0.0476 0.8622 -0.0006
vt 0.0459 0.8577 0.0006
vt 0.0459 0.7372 0.0006
vt 0.5011 0.4782 0.0451
vt 0.0611 0.4782 0.0451
vt 0.0718 0.4732 -0.0451
vt 0.5005 0.4732 -0.0451
vt 0.5267 0.9995 0.1776
vt 0.5267 0.5257 0.1776
vt 0.0452 0.7301 0.2734
vt 0.0409 0.7301 -0.2734
vt 0.0409 0.0005 -0.2734
vt 0.0452 0.0005 0.2734
vt 0.0148 0.7451 0.2790
vt 0.0106 0.7451 -0.2790
vt 0.0106 0.0005 -0.2790
vt 0.0148 0.0005 0.2790
vt 0.0250 0.7386 0.2766
vt 0.0207 0.7386 -0.2766
vt 0.0207 0.0005 -0.2766
vt 0.0250 0.0005 0.2766
vt 0.5307 0.4853 -0.1776
vt 0.5307 0.9591 -0.1776
vt 0.0510 0.0005 -0.2734
vt 0.0553 0.0005 0.2734
vt 0.0553 0.7301 0.2734
vt 0.0510 0.7301 -0.2734
vt 0.0005 0.0055 -0.2790
vt 0.0047 0.0055 0.2790
vt 0.0047 0.7501 0.2790
vt 0.0005 0.7501 -0.2790
vt 0.0308 0.0005 -0.2766
vt 0.0351 0.0005 0.2766
vt 0.0351 0.7386 0.2766
vt 0.0308 0.7386 -0.2766
# 108 texture coords

g Book
s 2
f 1/1/1 2/2/2 3/3/3 4/4/4 5/5/5 
s 4
f 6/6/6 7/7/7 8/8/8 9/9/9 10/10/10 
s 64
f 11/11/11 12/12/12 13/13/12 14/14/11 
s 32
f 8/15/13 7/16/13 15/17/13 16/18/13 17/19/13 12/20/13 11/21/13 18/22/13 19/23/13 20/24/13 5/25/13 4/26/13 
s off
f 2/27/14 1/28/14 21/29/14 22/30/14 
f 1/28/15 23/31/15 24/32/15 25/33/15 14/34/15 13/35/15 26/36/15 27/37/15 28/38/15 6/39/15 29/40/15 21/29/15 
f 6/39/15 10/41/15 30/42/15 29/40/15 
f 10/43/16 9/44/16 31/45/16 30/46/16 
f 9/47/13 8/48/13 32/49/13 31/50/13 
f 8/48/13 4/51/13 33/52/13 32/49/13 
f 4/51/13 3/53/13 34/54/13 33/52/13 
f 3/55/16 2/56/16 22/57/16 34/58/16 
f 22/59/17 21/60/17 35/61/17 36/62/17 
f 21/29/18 29/40/18 37/63/18 35/64/18 
f 29/65/19 30/66/19 38/67/19 37/68/19 
f 30/66/20 31/69/20 39/70/20 38/67/20 
f 31/69/21 32/71/21 40/72/21 39/70/21 
f 32/73/22 33/74/22 41/75/22 40/76/22 
f 33/77/23 34/78/23 42/79/23 41/80/23 
f 34/78/24 22/59/24 36/62/24 42/79/24 
s 64
f 15/81/25 7/7/26 6/6/26 28/82/25 
f 16/83/27 15/84/25 28/85/25 27/86/27 
f 17/87/28 16/88/27 27/89/27 26/90/28 
f 12/91/12 17/92/28 26/93/28 13/94/12 
f 23/95/29 1/1/30 5/5/30 20/96/29 
f 24/97/31 23/98/29 20/99/29 19/100/31 
f 25/101/32 24/102/31 19/103/31 18/104/32 
f 14/105/11 25/106/32 18/107/32 11/108/11 
# 28 polygons

#
# object Pages
#

v  -26.7636 1.8132 -1.8520
v  -26.7636 1.8132 -12.8266
v  47.2971 1.8132 -12.8266
v  47.2971 1.8132 -1.8520
v  47.2971 107.4044 -12.8266
v  47.2971 107.4044 -1.8520
v  -26.9557 107.4044 -12.8266
v  -26.9557 107.4044 -1.8520
# 8 vertices

vn 0.0000 -1.0000 -0.0000
vn 1.0000 0.0000 -0.0000
vn 0.0000 1.0000 0.0000
# 3 vertex normals

vt 0.3691 0.3579 0.0000
vt 0.3691 0.2176 0.0000
vt 0.5090 0.2176 -0.0000
vt 0.5090 0.3579 -0.0000
vt 0.0762 0.1779 -0.0000
vt 0.0762 0.0106 -0.0000
vt 0.2435 0.0106 0.0000
vt 0.2435 0.1779 0.0000
vt 0.2277 0.3579 -0.0000
vt 0.2277 0.2176 0.0000
vt 0.3680 0.2176 0.0000
vt 0.3680 0.3579 0.0000
# 12 texture coords

g Pages
s 8
f 43/109/33 44/110/33 45/111/33 46/112/33 
s 16
f 46/113/34 45/114/34 47/115/34 48/116/34 
s 32
f 48/117/35 47/118/35 49/119/35 50/120/35 
# 3 polygons

