# 3ds Max Wavefront OBJ Exporter v0.97b - (c)2007 guruware
# File Created: 19.10.2016 14:34:13

#
# object Book
#

v  0.1241 0.1618 0.0220
v  -0.1073 0.1618 0.0220
v  -0.1142 0.1618 0.0209
v  0.1241 -0.1618 0.0220
v  -0.1142 -0.1618 0.0209
v  -0.1142 0.1618 -0.0209
v  -0.1073 0.1618 -0.0220
v  0.1241 0.1618 -0.0220
v  0.1241 -0.1618 -0.0220
v  -0.1142 -0.1618 -0.0209
v  -0.1241 0.1618 -0.0024
v  -0.1241 -0.1618 -0.0024
v  -0.1241 -0.1618 0.0024
v  -0.1241 0.1618 0.0024
v  -0.1198 0.1618 -0.0171
v  -0.1226 0.1618 -0.0073
v  -0.1212 0.1618 -0.0122
v  -0.1226 0.1618 0.0073
v  -0.1198 0.1618 0.0171
v  -0.1212 0.1618 0.0122
v  -0.1147 -0.1618 0.0177
v  0.1241 -0.1618 0.0177
v  -0.1198 -0.1618 0.0171
v  -0.1212 -0.1618 0.0122
v  -0.1226 -0.1618 0.0073
v  -0.1198 -0.1618 -0.0171
v  -0.1226 -0.1618 -0.0073
v  -0.1212 -0.1618 -0.0122
v  -0.1147 -0.1618 -0.0177
v  0.1241 -0.1618 -0.0177
v  0.1241 0.1618 -0.0177
v  -0.1045 0.1618 -0.0177
v  -0.1045 0.1618 0.0177
v  0.1241 0.1618 0.0177
v  -0.1036 -0.1584 0.0165
v  0.1185 -0.1584 0.0165
v  -0.1036 -0.1584 -0.0165
v  0.1185 -0.1584 -0.0165
v  0.1185 0.1584 -0.0165
v  -0.1042 0.1584 -0.0165
v  -0.1042 0.1584 0.0165
v  0.1185 0.1584 0.0165
# 42 vertices

vn -0.0012 -0.0013 1.0000
vn -0.0515 -0.0011 0.9987
vn -0.1042 0.0000 0.9946
vn -0.0030 0.0000 1.0000
vn -0.0032 -0.0009 1.0000
vn -0.1042 0.0000 -0.9946
vn -0.0515 -0.0011 -0.9987
vn -0.0012 -0.0013 -1.0000
vn -0.0030 0.0000 -1.0000
vn -0.0032 -0.0009 -1.0000
vn -0.9776 0.0000 -0.2103
vn -0.9776 0.0000 0.2103
vn 0.0000 1.0000 -0.0000
vn 0.0000 -1.0000 -0.0000
vn 1.0000 0.0000 -0.0000
vn 0.0000 -0.2303 -0.9731
vn 0.2924 -0.9563 -0.0000
vn 0.0000 -0.2303 0.9731
vn 0.1432 0.0000 0.9897
vn 0.0000 0.2308 0.9730
vn 0.9967 0.0807 -0.0000
vn 0.0000 0.2308 -0.9730
vn 0.1432 0.0000 -0.9897
vn -0.4034 0.0000 -0.9150
vn -0.7003 0.0000 -0.7139
vn -0.9110 0.0000 -0.4125
vn -0.9131 0.0000 -0.4076
vn -0.4034 0.0000 0.9150
vn -0.7003 0.0000 0.7139
vn -0.9110 0.0000 0.4125
vn -0.9131 0.0000 0.4076
# 31 vertex normals

vt 0.9963 0.9591 0.1776
vt 0.5545 0.9591 0.1776
vt 0.5414 0.9591 0.0975
vt 0.9963 0.4853 0.1776
vt 0.5414 0.4853 0.0975
vt 0.5160 0.9995 -0.0975
vt 0.5029 0.9995 -0.1776
vt 0.0611 0.9995 -0.1776
vt 0.0611 0.5257 -0.1776
vt 0.5160 0.5257 -0.0975
vt 0.2479 0.0106 0.0000
vt 0.4088 0.0106 -0.0000
vt 0.4088 0.0285 -0.0000
vt 0.2479 0.0285 0.0000
vt 0.0005 0.7529 0.0000
vt 0.0044 0.7564 0.0000
vt 0.0076 0.7685 0.0000
vt 0.0092 0.7998 0.0000
vt 0.0084 0.7842 0.0000
vt 0.0092 0.8468 0.0000
vt 0.0100 0.8312 0.0000
vt 0.0100 0.8155 0.0000
vt 0.0076 0.8781 0.0000
vt 0.0084 0.8625 0.0000
vt 0.0044 0.8903 0.0000
vt 0.0005 0.8938 0.0000
vt 0.0819 0.3302 -0.0050
vt 0.0816 0.3199 -0.0050
vt 0.2176 0.3199 -0.0050
vt 0.2176 0.3338 -0.0050
vt 0.0787 0.3181 -0.0050
vt 0.0779 0.3023 -0.0050
vt 0.0771 0.2866 -0.0050
vt 0.0762 0.2552 -0.0050
vt 0.0762 0.2709 -0.0050
vt 0.0787 0.2081 -0.0050
vt 0.0771 0.2395 -0.0050
vt 0.0779 0.2238 -0.0050
vt 0.0816 0.2063 -0.0050
vt 0.0819 0.1959 -0.0050
vt 0.2176 0.1924 -0.0050
vt 0.2176 0.2063 -0.0050
vt 0.4088 0.0409 0.0000
vt 0.4088 0.0567 0.0000
vt 0.2479 0.0567 -0.0000
vt 0.2479 0.0409 -0.0000
vt 0.0914 0.2176 -0.0000
vt 0.2228 0.2176 0.0000
vt 0.2212 0.2315 0.0000
vt 0.0914 0.2315 -0.0000
vt 0.2228 0.3585 0.0000
vt 0.2212 0.3447 0.0000
vt 0.0914 0.3585 -0.0000
vt 0.0914 0.3447 -0.0000
vt 0.2479 0.0870 -0.0000
vt 0.2479 0.0712 -0.0000
vt 0.4088 0.0712 0.0000
vt 0.4088 0.0870 0.0000
vt 0.0611 0.0005 0.0451
vt 0.5208 0.0005 0.0451
vt 0.4994 0.0055 -0.0451
vt 0.0718 0.0055 -0.0451
vt 0.0879 0.2102 0.0050
vt 0.0879 0.3159 0.0050
vt 0.9954 0.0055 -0.0451
vt 0.9848 0.0106 0.0451
vt 0.5571 0.0106 0.0451
vt 0.5358 0.0055 -0.0451
vt 0.9954 0.4832 -0.0451
vt 0.9848 0.4782 0.0451
vt 0.5555 0.4832 -0.0451
vt 0.5560 0.4782 0.0451
vt 0.0476 0.8622 -0.0006
vt 0.0459 0.8577 0.0006
vt 0.0459 0.7372 0.0006
vt 0.0476 0.7327 -0.0006
vt 0.5011 0.4782 0.0451
vt 0.0611 0.4782 0.0451
vt 0.0718 0.4732 -0.0451
vt 0.5005 0.4732 -0.0451
vt 0.5267 0.5257 0.1776
vt 0.5267 0.9995 0.1776
vt 0.0409 0.7301 -0.2734
vt 0.0409 0.0005 -0.2734
vt 0.0452 0.0005 0.2734
vt 0.0452 0.7301 0.2734
vt 0.0106 0.7451 -0.2790
vt 0.0106 0.0005 -0.2790
vt 0.0148 0.0005 0.2790
vt 0.0148 0.7451 0.2790
vt 0.0207 0.7386 -0.2766
vt 0.0207 0.0005 -0.2766
vt 0.0250 0.0005 0.2766
vt 0.0250 0.7386 0.2766
vt 0.5307 0.9591 -0.1776
vt 0.5307 0.4853 -0.1776
vt 0.0553 0.0005 0.2734
vt 0.0553 0.7301 0.2734
vt 0.0510 0.7301 -0.2734
vt 0.0510 0.0005 -0.2734
vt 0.0047 0.0055 0.2790
vt 0.0047 0.7501 0.2790
vt 0.0005 0.7501 -0.2790
vt 0.0005 0.0055 -0.2790
vt 0.0351 0.0005 0.2766
vt 0.0351 0.7386 0.2766
vt 0.0308 0.7386 -0.2766
vt 0.0308 0.0005 -0.2766
# 108 texture coords

g Book
s 2
f 1/1/1 2/2/2 3/3/3 4/4/4 
f 5/5/5 4/4/4 3/3/3 
s 4
f 6/6/6 7/7/7 8/8/8 9/9/9 
f 10/10/10 6/6/6 9/9/9 
s 64
f 11/11/11 12/12/11 13/13/12 14/14/12 
s 32
f 7/15/13 6/16/13 15/17/13 16/18/13 
f 15/17/13 17/19/13 16/18/13 
f 18/20/13 7/15/13 16/18/13 14/21/13 
f 16/18/13 11/22/13 14/21/13 
f 19/23/13 7/15/13 18/20/13 20/24/13 
f 7/15/13 19/23/13 3/25/13 2/26/13 
s off
f 5/27/14 21/28/14 22/29/14 4/30/14 
f 23/31/14 24/32/14 25/33/14 12/34/14 
f 25/33/14 13/35/14 12/34/14 
f 26/36/14 23/31/14 12/34/14 27/37/14 
f 27/37/14 28/38/14 26/36/14 
f 29/39/14 23/31/14 26/36/14 10/40/14 
f 23/31/14 29/39/14 21/28/14 5/27/14 
f 9/41/14 30/42/14 29/39/14 10/40/14 
f 8/43/15 31/44/15 30/45/15 9/46/15 
f 8/47/13 7/48/13 32/49/13 31/50/13 
f 2/51/13 33/52/13 32/49/13 7/48/13 
f 1/53/13 34/54/13 33/52/13 2/51/13 
f 4/55/15 22/56/15 34/57/15 1/58/15 
f 22/59/16 21/60/16 35/61/16 36/62/16 
f 29/39/17 37/63/17 35/64/17 21/28/17 
f 30/65/18 38/66/18 37/67/18 29/68/18 
f 31/69/19 39/70/19 38/66/19 30/65/19 
f 32/71/20 40/72/20 39/70/20 31/69/20 
f 33/73/21 41/74/21 40/75/21 32/76/21 
f 33/77/22 34/78/22 42/79/22 41/80/22 
f 22/59/23 36/62/23 42/79/23 34/78/23 
s 64
f 6/6/24 10/10/24 26/81/25 15/82/25 
f 15/83/25 26/84/25 28/85/26 17/86/26 
f 17/87/26 28/88/26 27/89/27 16/90/27 
f 16/91/27 27/92/27 12/93/11 11/94/11 
f 5/5/28 3/3/28 19/95/29 23/96/29 
f 23/97/29 19/98/29 20/99/30 24/100/30 
f 24/101/30 20/102/30 18/103/31 25/104/31 
f 25/105/31 18/106/31 14/107/12 13/108/12 
# 34 polygons - 6 triangles

#
# object Pages
#

v  -0.1040 -0.1584 -0.0165
v  0.1182 -0.1584 -0.0165
v  0.1182 -0.1584 0.0165
v  -0.1040 -0.1584 0.0165
v  0.1182 0.1584 -0.0165
v  0.1182 0.1584 0.0165
v  -0.1045 0.1584 -0.0165
v  -0.1045 0.1584 0.0165
# 8 vertices

vn 0.0000 -1.0000 -0.0000
vn 1.0000 0.0000 -0.0000
vn 0.0000 1.0000 -0.0000
# 3 vertex normals

vt 0.3691 0.2176 0.0000
vt 0.5090 0.2176 -0.0000
vt 0.5090 0.3579 -0.0000
vt 0.3691 0.3579 0.0000
vt 0.2435 0.0106 0.0000
vt 0.2435 0.1779 0.0000
vt 0.0762 0.1779 -0.0000
vt 0.0762 0.0106 -0.0000
vt 0.3680 0.2176 0.0000
vt 0.3680 0.3579 0.0000
vt 0.2277 0.3579 -0.0000
vt 0.2277 0.2176 0.0000
# 12 texture coords

g Pages
s 8
f 43/109/32 44/110/32 45/111/32 46/112/32 
s 16
f 47/113/33 48/114/33 45/115/33 44/116/33 
s 32
f 49/117/34 50/118/34 48/119/34 47/120/34 
# 3 polygons

